<svg id="Layer_1" data-name="Layer 1" xmlns="http://www.w3.org/2000/svg" viewBox="0 0 599 777"><defs><style>.cls-1,.cls-17,.cls-2,.cls-3,.cls-4,.cls-5,.cls-6,.cls-7,.cls-8,.cls-9{fill:none;}.cls-1,.cls-17,.cls-2,.cls-3,.cls-4,.cls-5,.cls-6,.cls-7,.cls-8{stroke:#000;}.cls-1,.cls-2,.cls-3,.cls-4,.cls-5,.cls-6,.cls-7,.cls-8{stroke-linecap:round;stroke-linejoin:round;}.cls-1,.cls-17{stroke-width:2px;}.cls-2{stroke-width:1.82px;}.cls-3{stroke-width:1.56px;}.cls-4{stroke-width:1.29px;}.cls-5{stroke-width:1.85px;}.cls-6{stroke-width:1.55px;}.cls-7{stroke-width:1.3px;}.cls-8{stroke-width:1.12px;}.cls-9{stroke:#fff;}.cls-17,.cls-9{stroke-miterlimit:10;}.cls-10,.cls-12{fill:#fff;}.cls-11{fill:#ee3a43;}.cls-12{font-size:25px;}.cls-12,.cls-18{font-family:Optima-Bold, Optima;font-weight:700;}.cls-13{letter-spacing:-0.02em;}.cls-14{letter-spacing:-0.01em;}.cls-15{fill:#231f20;}.cls-15,.cls-16{font-size:30px;}.cls-18{font-size:45.99px;}.cls-19{letter-spacing:-0.02em;}.cls-20{letter-spacing:-0.07em;}</style></defs><title>logo-modal</title><g id="ALa5pF.tif"><path class="cls-1" d="M103,229.57a8.32,8.32,0,0,0,6.6,2.33c14.84-.38,29.68.48,44.51.85q15,.38,30,.38c15.5,0,31-1.12,46.49-.46,42.76,1.85,85.52.46,128.27.78,42.53.31,85.07.07,127.61.07,1.76,0,3.61.3,4.95-1.32"/><path class="cls-1" d="M337.43,24.81V203.53"/><path class="cls-1" d="M279.73,211.11V86.77l-2.64-.3"/><path class="cls-1" d="M285.66,86.14q0,60.67,0,121.34a8,8,0,0,1-.32,3.63"/><path class="cls-1" d="M282.37,86.47a7,7,0,0,1,.32,3.3q0,57,0,114.09v7.25"/><path class="cls-1" d="M403.71,209.13a7,7,0,0,0,.32-3.3q0-57,0-114.09c0-5.3-1-6.29-6.26-6.25-2.75,0-5.5.14-8.24.34a1.92,1.92,0,0,0-2,2.28c.05.54,0,1.1,0,1.65V211.44H372.71"/><path class="cls-1" d="M387.22,86.8c-2.93-1.17-2.64.83-2.64,2.64q0,41.38,0,82.76v38.91"/><path class="cls-1" d="M381.29,88.12c.21,41-.42,82,.33,123"/><path class="cls-1" d="M316.66,86.14v123"/><path class="cls-1" d="M294.9,84.82v123"/><path class="cls-1" d="M320,86.47V209.13"/><path class="cls-1" d="M291.6,85.15c.11,1.43.32,2.86.32,4.29q0,57,0,114.09c0,1.43-.21,2.86-.32,4.29"/><path class="cls-1" d="M384.25,87.46c-2.68-1-5.21,1.49-7.94.4a1.61,1.61,0,0,0-1,1.58,17.3,17.3,0,0,1,0,2.31V211.11"/><path class="cls-1" d="M297.86,80.54c.72,1,.29,2,0,2.87A49.25,49.25,0,0,1,289,84.85v3.27q0,58.53,0,117.06c0,1.64-.12,3.06-1.68,4"/><path class="cls-1" d="M372.05,89.44c.74.92.31,2,.31,3q0,58,0,116.07"/><path class="cls-1" d="M402.06,83.17c3.1.27,6.08,1.33,9.23,1.36,1.28,0,2,.88,2,2.27q0,56.71,0,113.43c0,3.85,0,7.69,0,11.54a5.25,5.25,0,0,1-.63,1.65"/><path class="cls-1" d="M407,88.12v121"/><path class="cls-1" d="M400.74,82.51c-10.63-.45-21,1.58-31.65,3.54v6.35c0,37.37,0,81.33,0,118.7"/><path class="cls-1" d="M313.69,85.48V209.13"/><path class="cls-1" d="M323.25,85.15c-.7-1.88-4.33-4-6.92-4-2.91,0-5.6.19-8.36-1.82-2.28-1.66-5.87-.94-8.39,0-3.92,1.46-8,1.35-12,2.39-3.42.9-7,1-10.86,1.57V211.11"/><path class="cls-1" d="M410.3,88.45c-.56,1.73-.32,3.52-.32,5.28q0,56.05,0,112.11a7,7,0,0,0,.32,3.3"/><path class="cls-1" d="M378,88.45a8,8,0,0,1,.32,3.63q0,59.52,0,119"/><path class="cls-1" d="M207.52,225.29c.11-1.43.31-30.56.32-32q0-25.88,0-51.77c0-3.62,0-3.63-3.62-3.63h-28"/><path class="cls-1" d="M338.42,218.36a4.14,4.14,0,0,0-3.3-1.33c-8.24,0-16.49,0-24.66,0a8.49,8.49,0,0,0,0,5.28c8.19,0,16.44,0,24.68,0,1.13,0,2.6-.09,2.88-1,.87-2.89,3-2.27,5-2.28,6.92,0,13.85,0,20.77,0"/><path class="cls-1" d="M245.77,130.32c2.83.89,5.94.57,8.61,2.26.88.56,1.31,1,1.31,2,0,10.66.49,21.35-.16,32-.71,11.67-.26,23.31-.51,35a14.28,14.28,0,0,1-1.33,4.62"/><path class="cls-1" d="M309.73,81.19c-.45,4.4.3,8.78.28,13.19-.15,36.6,0,73.2,0,109.8,0,.55,0,1.1,0,1.65.19,3,.92,3.63,4,3.63h16.49"/><path class="cls-1" d="M211.14,109.22c1.31,24.28.39,48.58.65,72.87.05,5.06,0,37.51,0,42.87"/><path class="cls-1" d="M174.54,136.26c-.93.65-.3,1.56-.3,2.31,0,20,0,66.39,0,86.39"/><path class="cls-1" d="M257.31,207.48c-4.64-1.55-9.43-.92-14.18-1-2.15,0-4.21.23-6.34-1.19-2.9-1.94-7.67-.76-10.19,1.5-1.24,1.11-1.27,2.31-1.27,3.67q0,5.94,0,11.87c0,3-1.28,4.16-4.28,4.65-10.07,1.63-20.22,1-30.34,1.35-11.76.41-23.52.07-35.28.3a5,5,0,0,1-4.29-1.69"/><path class="cls-1" d="M297.93,93.13c1,6.57.59,13.22.51,19.78-.4,33.85.29,67.31.13,101.16"/><path class="cls-1" d="M188.16,107.24H174.21c-.22,3.41-.05,6.89-.73,10.21-2.57,12.59-.86,25.29-1.18,37.94s-.09,25.06,0,37.59c0,1.8-.22,29.84-.22,32.31"/><path class="cls-1" d="M138.94,248.09c0-18.14-1-71.27-1-89.41a4.76,4.76,0,0,0-2.55-4.78"/><path class="cls-1" d="M400.74,134.28h-7.25c-1.75,0-2.41.19-2.45,2.63-.45,22.42,0,52.1-.19,74.52"/><path class="cls-1" d="M209.5,134.94c.7,1,.3,2.2.31,3.3,0,17.37,0,34.73,0,52.1,0,1.09-.35,33.72-.35,35"/><path class="cls-1" d="M253.37,205.5c-.1-4.72.64-62.21.64-67.15l-3.52-1.18a6.32,6.32,0,0,0-.74,3.37c0,12.2,0,24.4,0,36.6,0,2.75-.06,5.5,0,8.24,0,1.62-.66,3.51,1.3,4.62.55.31.38.88.31,1.31-.7,4.94-.12,9.9-.31,14.84"/><path class="cls-1" d="M401.73,86.8c-1.11,5.68-.51,11.46-.51,17.15,0,14.18-.18,28.36,0,42.53s0,49.24.18,63.31"/><path class="cls-1" d="M214.44,226.28c-1.06-1-2.4-.64-3.63-.65q-18.47,0-36.93,0c-1.21,0-2.42-.1-3.63-.16v2.81"/><path class="cls-1" d="M390.52,213.75c3.33,1.4,6.89.9,10.21.52,4.46-.51,8.8-.91,13.21.11a11.89,11.89,0,0,0,2.63,0h37.26"/><path class="cls-1" d="M250,136.92c-1.16-.36-2.31-.75-2.57.67a25.53,25.53,0,0,0-.35,4.61c0,10,0,33.19,0,43.2"/><path class="cls-1" d="M307.1,217H265.33a7.7,7.7,0,0,0,0,5.28H307.1"/><path class="cls-1" d="M245.77,130.32c-.32,0-22.25,2.82-22.34,3a3.44,3.44,0,0,0-.08,1.26c0,13.52.34,27-.12,40.55q-.43,12.53-.53,25.06c0,1.87-.13,3.77,1.32,5.28"/><path class="cls-1" d="M245.44,130.36v58"/><path class="cls-1" d="M397.44,217.37c-9.34-.76-18.68-.08-27.9-.4a7.62,7.62,0,0,0-.08,5.17c.71.06,1.48.17,2.26.17,10.11,0,20.22,0,30.34.05,2.1,0,2.67-.77,2.67-2.68s-.57-2.89-2.68-2.67a40.44,40.44,0,0,1-4.28,0"/><path class="cls-1" d="M252.36,138.24c-.65,4.16-.31,8.35-.32,12.53,0,11.1,0,42-.07,53.09"/><path class="cls-1" d="M298.58,214.35c4.63-.12,11.83-.16,16.46,0,7.8.25,15.61.08,23.41,0"/><path class="cls-1" d="M116.19,234.57c-1.36-1.14-2.34-37.7-2.33-39.29,0-5.5,0-11,0-17.27-4.95,2.51-9.73-.19-14.84.63,0,4.76-.08,9.38,0,14,0,1.49.85,37.78,0,39"/><path class="cls-1" d="M361.17,214.38q-11.54.05-23.08,0"/><path class="cls-1" d="M116.51,152.42v23.74"/><path d="M207.85,134.28c1.13,0,1.75,0,1.72-1.65-.16-8.24-.07-16.49-.07-24.73h-15.4"/><path class="cls-1" d="M134.65,154.07c.11,19.67,1.22,74.35,1.33,94"/><path class="cls-1" d="M255,135.93c-7.2-3.23-14.61-2.67-22.09-1.33-3,.53-5.93.89-8.9,1.33"/><path class="cls-1" d="M124.09,161.65c1.12.14,2.1-1.23,3.3-.39,0,14.79,1,64.52,1,79.25"/><path class="cls-1" d="M465,225.29c5.28,0,10.55-.07,15.83,0,2.42,0,4.83.48,7.26.59a1.68,1.68,0,0,1,1.6,1c1.23,4.41,5,5.22,8.62,6.26.57.16,1.1.43,1.65.65"/><path class="cls-1" d="M334.79,71a35.14,35.14,0,0,0-17.48,4.29"/><path class="cls-1" d="M334.79,45.58a34,34,0,0,0-15.47,3.36,3.93,3.93,0,0,1-2,.6"/><path class="cls-1" d="M335.21,58.11a46,46,0,0,0-17.89,4.29"/><path class="cls-1" d="M335.21,51.36c-2.17,1.31-5.38.55-7.69,1.08a65.74,65.74,0,0,0-10.21,3.69"/><path class="cls-1" d="M132,152.09c-1.7,5.51-1.28,11.18-1.31,16.82,0,6.59,0,13.19,0,19.78,0,8.13,1,51.27,1,59.4"/><path class="cls-1" d="M334.46,64.71A33.51,33.51,0,0,0,317.32,69"/><path class="cls-1" d="M102.33,176.49c-.7-.08-1.66.36-1.66-1,0-7.48,0-15,0-22.75,3.62,0,6.93.09,10.22,0,2.24-.09,3,.91,3,3,0,6.92,0,13.85,0,20.77"/><path class="cls-1" d="M251.37,218H235.54"/><path class="cls-1" d="M251.37,222H235.54"/><path class="cls-1" d="M308.74,79.22c.67-1.27.1-2.65.32-4,.26-1.53-.53-2.07-2-2.34a15,15,0,0,0-8.61.77c.19,1.79-.26,3.66.35,5.53"/><path class="cls-1" d="M401.07,85.81c.74-3.72,0-7.48.35-11.21.09-.87-.75-.82-1-1.3-.09-.15-.62,0-1,0-2.41.2-5.07-.79-7.2.42-2.67,1.51-.68,4.33-1.12,6.49a29.84,29.84,0,0,0-.25,5.62"/><path class="cls-1" d="M334.79,39.32a36.67,36.67,0,0,0-17.48,4.29"/><path class="cls-1" d="M174.52,129.34c.14,1.64,0,3.31,0,5.25,3.41-.37,6.44,1.1,9.56,0"/><path class="cls-1" d="M334.79,28.11c-1.74,2.11-5.92,2.38-8,3.09a43,43,0,0,0-9.47,4.9c-1,.65-.71,2.29-.71,3.55q0,20.61,0,41.22"/><path class="cls-1" d="M123.76,153.74c-.7,8.68-.19,17.37-.31,26s0,17.15,0,25.72c0,1.18.65,37.5,2,38.3"/><path class="cls-1" d="M258,207.81c3.1,3.07,6.49,4.84,10.89,2.66a2.24,2.24,0,0,1,2.32-.06c2.56,1.43,5.44,1,8.22,1,5.06.09,10.11.23,15.17.31a6.77,6.77,0,0,0,3.3-.32"/><path class="cls-1" d="M352.61,44.26c-.22,11.87-.17,35.61-.23,47.48,0,9,.17,18,.13,27,0,9.89-.05,19.79-.12,29.68-.07,9.11.16,18.25.14,27.37,0,9.89.32,19.79-.26,29.68"/><path class="cls-1" d="M334.79,77.24c-5.69.29-11.39.53-16.16,4.29"/><path class="cls-1" d="M309.73,127.69H298.52"/><path class="cls-1" d="M309.73,91.42c-3.74-.77-7.47.06-11.21,0"/><path class="cls-1" d="M309.73,106.58c-3.74-.53-7.47,0-11.21,0"/><path class="cls-1" d="M334.79,102.63c-3.77.35-7.61.16-11.21,1.65"/><path class="cls-1" d="M309.73,136.92H298.52"/><path class="cls-1" d="M309.73,88.12H298.52"/><path class="cls-1" d="M334.79,83.5c-4.36.51-8.8.48-12.89,2.58-1.62.84-3.68-.15-5.2-.48-6.13-1.37-12.14-.09-18.18-.12"/><path class="cls-1" d="M309.4,100.32l-10.88.33"/><path class="cls-1" d="M309.73,103.29c-3.63.08-7.27-.24-10.88.33"/><path class="cls-1" d="M334.46,96.36c-3.71-.24-7.27.79-10.88,1.32"/><path class="cls-1" d="M309.4,115.49l-10.88.33"/><path class="cls-1" d="M309.73,118.45c-3.63.08-7.27-.24-10.88.33"/><path class="cls-1" d="M309.4,121.42c-3.61.57-7.25.25-10.88.33"/><path class="cls-1" d="M309.4,145.82l-10.88.33"/><path class="cls-1" d="M334.46,89.77c-3.58.92-7.45.23-10.88,2"/><path class="cls-1" d="M309.4,130.65l-10.88.33"/><path class="cls-1" d="M309.73,133.62c-3.63.08-7.27-.24-10.88.33"/><path class="cls-1" d="M334.79,165.94c-2.69-.45-5.3.32-7.9.75-.9.15-1.78.07-2.65.24"/><path class="cls-1" d="M309.07,82.18H298.52"/><path class="cls-1" d="M309.4,139.89H298.85"/><path class="cls-1" d="M309.4,94.38c-3.52-.7-7-.15-10.55,0"/><path class="cls-1" d="M334.79,115.16l-10.55,1"/><path class="cls-1" d="M334.79,185.06c-2.85-1-5.49.53-8.24.76a16.27,16.27,0,0,0-2.32.23"/><path class="cls-1" d="M334.79,140.55c-3.61-.29-7,1-10.55,1.32"/><path class="cls-1" d="M455.81,214.74q12.86,0,25.72,0a7,7,0,0,0,3.3-.32"/><path class="cls-1" d="M334.79,172.2l-10.55.66"/><path class="cls-1" d="M334.79,146.81l-10.55,1"/><path class="cls-1" d="M334.79,134.28l-10.55,1"/><path class="cls-1" d="M334.79,108.89a32.09,32.09,0,0,0-10.88,2"/><path class="cls-1" d="M483.17,221.33H455.81"/><path class="cls-1" d="M334.46,121.42l-10.22,1.32"/><path class="cls-1" d="M334.46,159.67c-3.45-.47-6.79.88-10.22.66"/><path class="cls-1" d="M334.46,128c-3.45-.47-6.79.88-10.22.66"/><path class="cls-1" d="M483.17,218H455.81"/><path class="cls-1" d="M334.46,153.08c-3.48-.12-6.79,1.06-10.22,1.32"/><path class="cls-1" d="M352.27,62.4c-3.18-1.84-6.37-3.68-10.22-3.63"/><path class="cls-1" d="M342,84.16c3.71.16,7,1.7,10.22,3.3"/><path class="cls-1" d="M352.27,55.81A30.66,30.66,0,0,0,342,52.18"/><path class="cls-1" d="M352.27,100c-3.32-1.28-6.38-3.47-10.22-3"/><path class="cls-1" d="M342,65c3.72.13,6.86,2.06,10.22,3.3"/><path class="cls-1" d="M352.27,49.54C349,48,345.9,46,342,46.24"/><path class="cls-1" d="M352.27,80.86c-3.38-1.09-6.4-3.41-10.22-3"/><path class="cls-1" d="M352.27,43.28c-3.27-1.59-6.41-3.54-10.22-3.63"/><path class="cls-1" d="M352.27,74.93A23.93,23.93,0,0,0,342,71.3"/><path class="cls-1" d="M352.27,94.05A22.67,22.67,0,0,0,342,90.43"/><path class="cls-1" d="M401.39,210.45c.07,1-.2,2.12.67,3"/><path class="cls-1" d="M130.36,151.1c-2.91,3.23-7,1.93-10.88,2.88,0,6.12,0,12.34,0,18.55,0,2.76.2,5.47-.55,8.27-.95,3.5-.17,7.24-.23,10.86,0,2.73-.44,5.48-.28,8.24.11,2,1.32,38.72,3.06,39.94"/><path class="cls-1" d="M400.74,76.58c-3.08-.89-6.16.31-9.23,0"/><path class="cls-1" d="M400.74,112.85h-9.23"/><path class="cls-1" d="M400.74,109.88l-9.23.33"/><path class="cls-1" d="M232.58,213.75c-1.35,2-.57,4.17-.64,6.27-.08,2.53,0,5.06,0,7.58"/><path class="cls-1" d="M400.74,106.91h-9.23"/><path class="cls-1" d="M391.51,97.68h9.23"/><path class="cls-1" d="M400.74,137.25h-9.23"/><path class="cls-1" d="M400.74,131.31c-3.08-.87-6.16,0-9.23,0"/><path class="cls-1" d="M400.74,91.75c-3.08-.78-6.16.21-9.23,0"/><path class="cls-1" d="M400.74,140.22c-3.08.18-6.18-.38-9.23.33"/><path class="cls-1" d="M298.52,142.85h11.21"/><path class="cls-1" d="M400.74,143.51c-3.08-.74-6.16-.18-9.23,0"/><path class="cls-1" d="M400.74,146.48c-3.08-.82-6.16.06-9.23,0"/><path class="cls-1" d="M391.51,103.95h9.23"/><path class="cls-1" d="M400.74,128l-9.23.33"/><path class="cls-1" d="M400.74,125l-9.23.33"/><path class="cls-1" d="M400.74,122.08h-9.23"/><path class="cls-1" d="M352.27,138.24c-2.56-1.46-7-3.14-10.22-2.64"/><path class="cls-1" d="M352.27,144.17c-2.71-.81-7.19-2.49-10.22-2"/><path class="cls-1" d="M352.27,182.42c-2.56-1.46-7-3.14-10.22-2.64"/><path class="cls-1" d="M334.79,178.47l-10.55,1"/><path class="cls-1" d="M352.27,175.83c-2.61-1.23-7.18-2.54-10.22-2"/><path class="cls-1" d="M352.27,150.77c-2.61-1.26-7.1-2.89-10.22-2.31"/><path class="cls-1" d="M334.79,28.11c1.19-1.36.37-3.14.8-4.78H341c.9,1.82-.39,3.88,1,5.44"/><path class="cls-1" d="M352.27,125.38c-2.64-1.15-7.12-2.81-10.22-2.31"/><path class="cls-1" d="M352.27,112.85c-2.57-1.42-7.13-2.78-10.22-2.31"/><path class="cls-1" d="M342.38,116.81c3.06-.68,7.35,1.2,9.89,2.31"/><path class="cls-1" d="M352.27,131.64c-2.59-1-6.84-3-9.89-2.31"/><path class="cls-1" d="M342.38,167.58c3-.55,7.47.79,9.89,2.31"/><path class="cls-1" d="M352.27,157.36c-2.37-1.73-6.8-3.14-9.89-2"/><path class="cls-1" d="M352.27,163.3c-2.62-.92-6.94-2.71-9.89-2.64"/><path class="cls-1" d="M351.94,188.69a17.26,17.26,0,0,0-9.89-2.31"/><path class="cls-1" d="M207.19,134.61a19.83,19.83,0,0,1-7.91,0"/><path class="cls-1" d="M299.18,76.25c3.08,0,6.16-.78,9.23,0"/><path class="cls-1" d="M309.4,109.55c-3.52-.76-7,0-10.55,0"/><path class="cls-1" d="M335.47,24.2c-.21,4.75-.18,16-.05,20.07a140.18,140.18,0,0,1,0,16.15c-.64,7.49.09,15,0,22.43-.09,5.68-.47,11.41,0,17.15.34,4.45-.05,9,0,13.51,0,3.5-.06,7.07-.06,10.55,0,5.17.23,10.33.2,15.5s.19,10.56-.05,15.83c-.33,7.26.27,14.51-.16,21.77-.18,3,.11,24.72.11,27.8"/><path class="cls-1" d="M352.27,106.58c-1.21-.66-2.39-1.38-3.64-2s-5.8-.77-6.92.31"/><path class="cls-1" d="M400.74,94.71a54.13,54.13,0,0,0-9.23.33"/><path class="cls-1" d="M400.74,79.55a54.13,54.13,0,0,0-9.23.33"/><path class="cls-1" d="M342,28.77c-.48,2.67-.54,10.14-.56,12.86-.05,7.69.13,15.4.08,23.08-.05,9-.11,130.47-.16,139.48"/><path class="cls-1" d="M464,225.29c-9.86,1.22-19.8.85-29.68.83-12.53,0-25.06-.13-37.59-.11-14.07,0-28.14,0-42.21.13-8.78.09-17.59-.19-26.38-.13-13.63.1-27.26,0-40.89.12-10.54.07-21.1.05-31.65-.15-6.26-.12-12.53,0-18.79,0"/><path class="cls-1" d="M309.4,124.72c-3.52-.62-7,.15-10.55,0"/><path class="cls-1" d="M227.63,226.94c1.76,2,4.3.28,6.22,1.25,1.19,1.71-.38,2.93-.61,4.36"/><path class="cls-1" d="M309.73,112.52H298.52"/><path class="cls-1" d="M391.51,119.11h9.23"/><path class="cls-1" d="M400.74,100.65l-9.23.33"/><path class="cls-1" d="M400.74,115.82l-9.23.33"/><path class="cls-1" d="M463.72,215.07c-.68,5.23,1.19,10.3,1,15.5"/><path class="cls-1" d="M458.77,225.62v4.95"/><path class="cls-1" d="M483.17,225.62v4.95"/><path class="cls-1" d="M360.51,226.61c.13,1.54-.32,3.12.33,4.62"/><path class="cls-1" d="M274.78,226.61c-.13,1.54.32,3.12-.33,4.62"/><path class="cls-1" d="M309.73,97.35H298.52"/><path class="cls-1" d="M471,225.95l-.33,4.62"/><path class="cls-1" d="M476.91,225.95l.33,4.62"/><path class="cls-1" d="M299.18,226.61v4.62"/><path class="cls-1" d="M103.65,153.41c.63,3.94.26,7.91.32,11.87.05,3.41,0,6.81,0,10.22,0,.8.5.84,1,1"/><path class="cls-1" d="M106.95,153.41c.61,3.83.29,7.69.32,11.54,0,3.41,0,6.81,0,10.22,0,.82.21,1.23,1,1.32"/><path class="cls-1" d="M336.11,226.61v4.62"/><path class="cls-1" d="M317.65,226.61v4.62"/><path class="cls-1" d="M372.71,226.61a7.62,7.62,0,0,1,0,4.62"/><path class="cls-1" d="M262.58,226.61a7.62,7.62,0,0,0,0,4.62"/><path class="cls-1" d="M397.44,226.61v4.62"/><path class="cls-1" d="M108.93,179.78c1.34,3,.61,6.15.65,9.23.05,4.18,0,8.35,0,12.53,0,.88.37,36.13,0,36.65"/><path class="cls-1" d="M110.25,153.41v22.42"/><path class="cls-1" d="M127.39,153.41c-.1,2.53.28,5.08-.33,7.58"/><path class="cls-1" d="M102.66,179.13c0,3.85.61,7.67.07,11.55a25.69,25.69,0,0,0,.29,5.92c.1,1,.75,36.73,0,37.31"/><path class="cls-1" d="M452.51,226.61l-.33,4"/><path class="cls-1" d="M366.78,226.61l-.33,4"/><path class="cls-1" d="M281,226.61l-.33,4"/><path class="cls-1" d="M256.32,226.61v4"/><path class="cls-1" d="M268.52,226.61l.33,4"/><path class="cls-1" d="M385.24,226.61l-.33,4"/><path class="cls-1" d="M237.85,226.61v4"/><path class="cls-1" d="M250.05,226.61l.33,4"/><path class="cls-1" d="M244.12,226.61l-.33,4"/><path class="cls-1" d="M446.24,226.61v4"/><path class="cls-1" d="M428.11,226.61l-.33,4"/><path class="cls-1" d="M434,226.61l.33,4"/><path class="cls-1" d="M440.31,226.61v4"/><path class="cls-1" d="M421.84,226.61v4"/><path class="cls-1" d="M409.64,226.61c-.77,1.26.6,2.71-.33,4"/><path class="cls-1" d="M415.58,226.61c.77,1.26-.6,2.71.33,4"/><path class="cls-1" d="M323.91,226.61l-.33,4"/><path class="cls-1" d="M342,226.61v4"/><path class="cls-1" d="M354.25,226.61l.33,4"/><path class="cls-1" d="M311.38,226.61l.33,4"/><path class="cls-1" d="M293.25,226.61v4"/><path class="cls-1" d="M403.38,226.61v4"/><path class="cls-1" d="M379,226.61v4"/><path class="cls-1" d="M391.51,88.78h9.23"/><path class="cls-1" d="M474.6,215.4v9.73"/><path class="cls-1" d="M483.5,215.07c.75,3.3,0,6.59,0,9.89"/><path class="cls-1" d="M390.52,86.47c.85,5,.3,10.11.32,15.17,0,9.67-.07,19.35.11,29,0,1.28-.77,2.71.23,4"/><path class="cls-1" d="M412.61,88.12c-2.8.47-5.44-1.13-8.24-.66"/><path class="cls-1" d="M289.29,208.14l8.24.33"/><path class="cls-1" d="M375,88.78c-1.83-1.1-3.47,1-5.28.33"/><path class="cls-1" d="M288.63,85.48c-2.85-.52-5.51.53-8.24,1"/><path class="cls-1" d="M402.06,209.79c3.52-.49,7-.06,10.55,0"/><path class="cls-1" d="M113.21,160h-2.64"/><path class="cls-1" d="M397.44,217.7v4"/><path class="cls-1" d="M329.85,226.61l.33,4"/><path class="cls-1" d="M305.45,226.61l-.33,4"/><path class="cls-1" d="M102.66,168.24l-1.32.66"/><path class="cls-1" d="M101.34,159.67l1.32.66"/><path class="cls-1" d="M410,217c-3.25.65-.91,3.1-1.71,4.43a4.42,4.42,0,0,0,3.35.85q18.14,0,36.27,0c1.61,0,3.52.47,4-2,.48-2.68-1.1-3.3-3.3-3.3H410.3"/></g><line class="cls-1" x1="178.03" y1="225.29" x2="178.5" y2="139.7"/><line class="cls-1" x1="182.03" y1="225.29" x2="182.51" y2="139.7"/><line class="cls-1" x1="184.55" y1="225.29" x2="185.02" y2="139.7"/><line class="cls-1" x1="188.16" y1="225.29" x2="188.63" y2="139.7"/><line class="cls-1" x1="190.8" y1="225.29" x2="191.27" y2="139.7"/><line class="cls-1" x1="194.09" y1="225.29" x2="194.56" y2="139.7"/><line class="cls-1" x1="197.06" y1="225.29" x2="197.53" y2="139.7"/><line class="cls-1" x1="199.37" y1="225.22" x2="199.84" y2="140.29"/><line class="cls-1" x1="202.99" y1="225.29" x2="203.47" y2="139.7"/><path class="cls-1" d="M241.13,136.4c0,17.37,0,34.73,0,52.1,0,1.09-.39,2.26.31,3.3"/><line class="cls-1" x1="225.4" y1="200.23" x2="225.89" y2="138.52"/><line class="cls-1" x1="228.37" y1="199.57" x2="228.86" y2="138.52"/><line class="cls-1" x1="230.68" y1="200.16" x2="231.16" y2="139.11"/><line class="cls-1" x1="232.99" y1="199.57" x2="233.47" y2="138.52"/><line class="cls-1" x1="235.29" y1="200.16" x2="235.78" y2="138.52"/><line class="cls-1" x1="238.06" y1="200.16" x2="238.56" y2="137.91"/><polygon class="cls-1" points="190.15 102.61 209.33 130.98 175.53 130.98 190.15 102.61"/><line class="cls-1" x1="190.14" y1="130.65" x2="190.14" y2="94.38"/><line class="cls-2" x1="186.63" y1="130.32" x2="186.63" y2="100.32"/><line class="cls-3" x1="182.51" y1="130.32" x2="182.51" y2="108.23"/><line class="cls-4" x1="178.99" y1="130.65" x2="178.99" y2="115.49"/><line class="cls-5" x1="194.56" y1="130.32" x2="194.56" y2="99.33"/><line class="cls-6" x1="199.84" y1="130.32" x2="199.84" y2="108.56"/><line class="cls-7" x1="203.47" y1="130.65" x2="203.47" y2="115.32"/><line class="cls-8" x1="207.19" y1="130.65" x2="207.19" y2="119.28"/><line class="cls-8" x1="175.53" y1="130.41" x2="175.53" y2="119.03"/><polyline class="cls-1" points="136.69 152.58 135.41 149.12 100.67 147.97 100.68 152.09"/><polygon class="cls-1" points="118.37 138.9 134.97 147.97 107.94 147.64 118.37 138.9"/><line class="cls-1" x1="100.67" y1="147.97" x2="117.83" y2="138.57"/><polygon points="271.18 209.75 271.18 105.69 276.76 103.29 276.76 210.45 271.18 209.75"/><polygon points="365.61 210.47 365.61 91.85 368.4 89.11 368.4 211.28 365.61 210.47"/><polygon points="357.05 207.44 357.05 105.36 364.61 100.98 364.61 208.14 357.05 207.44"/><polygon points="415.69 202.13 415.69 211.11 444.05 211.11 444.05 199.28 439.65 199.28 435.03 183.22 430.91 199.38 428.08 199.38 423.82 182.75 419.64 199.14 415.69 199.14 415.69 202.13"/><polygon points="452.03 212.09 452.03 148.08 459.59 147.97 459.59 212.53 452.03 212.09"/><line class="cls-9" x1="452.34" y1="151.4" x2="459.59" y2="151.4"/><polygon class="cls-10" points="453.83 211.77 457.79 154.96 457.79 211.81 453.83 211.77"/><polygon points="460.12 212.24 460.12 148.23 467.68 148.12 467.68 212.68 460.12 212.24"/><line class="cls-9" x1="460.43" y1="151.55" x2="467.68" y2="151.55"/><polygon class="cls-10" points="461.92 211.92 465.88 155.11 465.88 211.96 461.92 211.92"/><rect x="393.82" y="151.4" width="4.29" height="9.26"/><rect x="393.82" y="161.73" width="4.29" height="9.26"/><rect x="393.82" y="172.07" width="4.29" height="9.26"/><rect x="393.82" y="182.41" width="4.29" height="9.26"/><rect x="393.82" y="192.96" width="4.29" height="9.26"/><rect x="393.82" y="203.47" width="4.29" height="9.26"/><rect x="302.26" y="151.4" width="4.29" height="9.26"/><rect x="302.26" y="161.73" width="4.29" height="9.26"/><rect x="302.26" y="172.07" width="4.29" height="9.26"/><rect x="302.26" y="182.41" width="4.29" height="9.26"/><rect x="302.26" y="192.96" width="4.29" height="9.26"/><rect x="302.26" y="203.47" width="4.29" height="9.26"/><path class="cls-1" d="M323.25,86.47V209.13"/><path class="cls-1" d="M365.2,85.34s1.15-50.7-.35-52.4C361.17,28.77,347,28.11,347,28.11"/><rect x="222.19" y="202.21" width="54.9" height="20.78"/><rect x="248.62" y="193.3" width="12.98" height="10.22"/><rect x="250.05" y="190.23" width="10.12" height="4.21"/><polygon points="255.02 181.9 259.83 190.23 250.21 190.23 255.02 181.9"/><rect class="cls-10" x="250.52" y="196.93" width="3.69" height="3.69"/><rect class="cls-10" x="256.31" y="196.93" width="3.69" height="3.69"/><rect x="232.05" y="192.92" width="12.98" height="10.22"/><rect x="233.48" y="189.84" width="10.12" height="4.21"/><polygon points="238.45 181.52 243.26 189.84 233.64 189.84 238.45 181.52"/><rect class="cls-10" x="233.95" y="196.55" width="3.69" height="3.69"/><rect class="cls-10" x="239.74" y="196.55" width="3.69" height="3.69"/><line class="cls-9" x1="268.52" y1="204.19" x2="224" y2="204.19"/><path class="cls-1" d="M243.11,136.4c0,17.37,0,34.73,0,52.1"/><line class="cls-1" x1="241.27" y1="130.88" x2="241.27" y2="121.6"/><rect class="cls-11" y="235.02" width="599" height="541.98"/><path d="M174,337.59c.12-.76.27-1.52.35-2.29.54-5.43.76-10.9,1.65-16.27,1.64-9.86,3.6-19.68,5.57-29.48,1.31-6.54,3-13,4.22-19.55a95.81,95.81,0,0,0,1.24-11.32,72.75,72.75,0,0,0,0-8.41c-.29-6.1-.68-12.2-1.08-18.29-.23-3.43-.49-6.87-.85-10.29-.45-4.42-1-8.82-1.52-13.23-.42-3.59-1-7.17-1.25-10.78a7.86,7.86,0,0,1,8.32-8.67,13.93,13.93,0,0,1,4.38.94,157.14,157.14,0,0,0,29.29,7.53,104.71,104.71,0,0,0,21.82,1.4,65.77,65.77,0,0,0,19.07-4.26A90.57,90.57,0,0,0,291.63,180c2.87-2.33,5.39-5.09,8.11-7.7.74.86,1.64,2,2.64,3.06,6.43,6.69,14.21,11.43,22.46,15.46a83.06,83.06,0,0,0,22.73,7.44,57.32,57.32,0,0,0,15.4.38c4.73-.49,9.47-1,14.18-1.69a142.15,142.15,0,0,0,27.89-7.44c4.89-1.8,10.24.64,11.4,5.3a14.42,14.42,0,0,1,.13,4.92c-.54,5.09-1.26,10.17-1.85,15.26s-1.16,10-1.6,15q-.59,6.65-.87,13.33c-.19,4.83-.22,9.66-.29,14.49-.1,6.42,1.31,12.64,2.65,18.86,2.42,11.29,5.06,22.55,7.2,33.89a203.44,203.44,0,0,1,2.55,20.43,140.43,140.43,0,0,1,.53,16.95c-.5,13.85-3,27.27-9.63,39.68s-16.18,21.87-28.07,29.13c-10.37,6.33-21.66,10.46-33.25,13.86-6,1.75-12,3.31-17.8,5.49-10.08,3.8-19.07,9.61-27.53,16.22-3.1,2.43-6,5.06-9.12,7.64-2-1.76-4-3.62-6.17-5.36-12.6-10.3-26.33-18.39-42.3-22.4a151.49,151.49,0,0,1-32.58-11.81,85.31,85.31,0,0,1-23.16-16.91,73.19,73.19,0,0,1-18.38-34.69,94.74,94.74,0,0,1-2.52-18.76,7.52,7.52,0,0,0-.33-1.46ZM299.62,450.46c1.54-1.39,3-2.84,4.56-4.09a116.68,116.68,0,0,1,41.66-20.81c12.77-3.46,25.11-8,36.46-15,10.32-6.3,19.08-14.22,25.34-24.68,6.78-11.32,9.62-23.8,10.21-36.8a138.78,138.78,0,0,0-.54-18.44,206.56,206.56,0,0,0-2.8-20.52c-2.18-11.44-4.81-22.78-7.18-34.19a80.16,80.16,0,0,1-2.09-16.46q0-10.9.28-21.81c.06-2.7.36-5.4.61-8.1.41-4.33.83-8.67,1.31-13,.37-3.32.87-6.62,1.25-9.94.27-2.36.56-4.73.64-7.1a2.51,2.51,0,0,0-2.9-2.74,14.49,14.49,0,0,0-3.61.75,152,152,0,0,1-44.45,7.85A60.84,60.84,0,0,1,343,204.21c-15.64-3.61-29.51-10.86-42.14-20.62a1.8,1.8,0,0,0-2.68-.05,112.47,112.47,0,0,1-33.28,18.21,61.41,61.41,0,0,1-17,3.6A106.53,106.53,0,0,1,223.81,204q-10-1.79-19.86-4c-3.43-.77-6.73-2.06-10.13-3-2.2-.6-3.83.34-4.06,2.3a15.85,15.85,0,0,0,0,3.86c.55,4.17,1.31,8.31,1.79,12.49.66,5.83,1.26,11.67,1.66,17.52.42,6.05.65,12.12.82,18.19A120.8,120.8,0,0,1,191,280c-2.95,13.8-6.48,27.49-8.27,41.51-.64,5-1.36,10.1-1.56,15.16a108.33,108.33,0,0,0,1.54,25.51,76.85,76.85,0,0,0,6.36,19.5c6.25,12.53,15.92,21.79,27.74,29s24.41,11.65,37.53,15.24a114.71,114.71,0,0,1,38.52,18.95C295.22,446.55,297.34,448.53,299.62,450.46Z"/><path d="M318.06,470.28c-.53-.21-1.06-.44-1.6-.62-4.17-1.42-6.44-5.38-5.77-10.07.53-3.69,4.12-6.76,8.13-7,5.19-.25,9.19,3,9.6,8.12a8.77,8.77,0,0,1-6.75,9.17,6.09,6.09,0,0,0-.85.36Zm8.68-8.8a7.23,7.23,0,0,0-6.83-7.63,7.34,7.34,0,0,0-7.74,7c-.06,4.68,3,8.07,7.35,8A7.28,7.28,0,0,0,326.74,461.48Z"/><path class="cls-10" d="M299.62,450.46c-2.28-1.92-4.39-3.91-6.7-5.63a114.71,114.71,0,0,0-38.52-18.95c-13.12-3.6-25.85-8.12-37.53-15.24s-21.49-16.47-27.74-29a76.85,76.85,0,0,1-6.36-19.5,108.33,108.33,0,0,1-1.54-25.51c.2-5.07.92-10.12,1.56-15.16,1.79-14,5.32-27.71,8.27-41.51a120.8,120.8,0,0,0,3-28.65c-.17-6.07-.41-12.14-.82-18.19-.4-5.85-1-11.69-1.66-17.52-.47-4.18-1.24-8.32-1.79-12.49a15.85,15.85,0,0,1,0-3.86c.23-2,1.86-2.9,4.06-2.3,3.39.93,6.7,2.21,10.13,3q9.88,2.23,19.86,4A106.53,106.53,0,0,0,248,205.34a61.41,61.41,0,0,0,17-3.6,112.47,112.47,0,0,0,33.28-18.21,1.8,1.8,0,0,1,2.68.05c12.63,9.76,26.5,17,42.14,20.62a60.84,60.84,0,0,0,15.32,1.24,152,152,0,0,0,44.45-7.85,14.49,14.49,0,0,1,3.61-.75,2.51,2.51,0,0,1,2.9,2.74c-.08,2.37-.37,4.74-.64,7.1-.38,3.32-.88,6.62-1.25,9.94-.48,4.33-.9,8.66-1.31,13-.25,2.69-.55,5.39-.61,8.1q-.25,10.9-.28,21.81A80.16,80.16,0,0,0,407.33,276c2.37,11.4,5,22.75,7.18,34.19a206.56,206.56,0,0,1,2.8,20.52,138.78,138.78,0,0,1,.54,18.44c-.59,13-3.44,25.47-10.21,36.8-6.26,10.46-15,18.38-25.34,24.68-11.35,6.93-23.69,11.49-36.46,15a116.68,116.68,0,0,0-41.66,20.81C302.58,447.61,301.16,449.07,299.62,450.46Zm-.05-1.45c6.56-6.25,14-10.9,21.84-15.05,9.11-4.84,18.81-8,28.7-10.81,12.85-3.64,25.08-8.77,36.13-16.43,9.28-6.44,16.91-14.39,22.19-24.49,5.83-11.16,8.13-23.2,8.44-35.62a166.55,166.55,0,0,0-.8-17.89,132.16,132.16,0,0,0-2-14.82c-2.39-12-5.08-24-7.56-36.07A102.5,102.5,0,0,1,404,255.73c.09-6.53.32-13.06.56-19.59.1-2.66.35-5.32.6-8q.6-6.22,1.31-12.43c.38-3.27.87-6.53,1.28-9.8.24-1.91.55-3.82.61-5.73s-.8-2.5-2.6-2.16a30.22,30.22,0,0,0-4,1.05,132.06,132.06,0,0,1-23.57,5.56c-5.53.78-11.12,1.15-16.68,1.72a60,60,0,0,1-19.42-1.29c-12.08-2.71-23.08-7.94-33.43-14.6-3.15-2-6.16-4.28-9.24-6.42a117.65,117.65,0,0,1-30.73,17.5c-8.8,3.37-17.9,5.43-27.38,5-5.4-.23-10.79-.78-16.17-1.35a140.1,140.1,0,0,1-23.21-4.7c-2.77-.78-5.49-1.7-8.26-2.47-2.21-.61-3,.42-3,2.61a6.78,6.78,0,0,0,0,1c.64,4.81,1.36,9.6,1.93,14.42.62,5.28,1.17,10.57,1.61,15.87.38,4.53.66,9.08.8,13.62.29,9.38.2,18.75-1.68,28-1.68,8.28-3.47,16.54-5.26,24.8-2.76,12.76-5.18,25.55-5.81,38.64A109.75,109.75,0,0,0,184,362.9c3.65,19.23,13.95,33.94,30.14,44.7,11,7.33,23.12,12.28,35.8,15.83a138.72,138.72,0,0,1,26.55,9.93C284.81,437.64,292.66,442.5,299.57,449Z"/><path class="cls-10" d="M326.74,461.48a7.28,7.28,0,0,1-7.21,7.44c-4.32,0-7.42-3.35-7.35-8a7.34,7.34,0,0,1,7.74-7A7.23,7.23,0,0,1,326.74,461.48Zm-3.65,5.09.4-.45-2.54-4a5.77,5.77,0,0,1,.73-.39,2.47,2.47,0,0,0,1.83-2.85,2.29,2.29,0,0,0-2.2-2.38c-1.66-.16-3.33-.18-5-.26v10c.8.3,1.2.15,1.17-.73,0-1.13,0-2.27,0-3.36,1.32-.44,2.17-.22,2.73,1a11.4,11.4,0,0,0,1.43,2.34A7.68,7.68,0,0,0,323.08,466.57Z"/><path d="M299.57,449c-6.9-6.5-14.76-11.36-23-15.64A138.72,138.72,0,0,0,250,423.44c-12.67-3.55-24.77-8.5-35.8-15.83C198,396.85,187.7,382.13,184,362.9A109.75,109.75,0,0,1,182.33,337c.63-13.09,3-25.88,5.81-38.64,1.79-8.26,3.58-16.52,5.26-24.8,1.88-9.24,2-18.62,1.68-28-.14-4.55-.42-9.09-.8-13.62-.44-5.3-1-10.59-1.61-15.87-.56-4.82-1.29-9.61-1.93-14.42a6.78,6.78,0,0,1,0-1c0-2.19.78-3.22,3-2.61,2.77.76,5.49,1.69,8.26,2.47a140.1,140.1,0,0,0,23.21,4.7c5.38.57,10.77,1.12,16.17,1.35,9.48.4,18.57-1.66,27.38-5a117.67,117.67,0,0,0,30.73-17.5c3.08,2.15,6.08,4.4,9.24,6.42,10.36,6.65,21.35,11.89,33.43,14.6a60,60,0,0,0,19.42,1.29c5.56-.57,11.15-.94,16.68-1.72a132.06,132.06,0,0,0,23.57-5.56,30.22,30.22,0,0,1,4-1.05c1.8-.34,2.67.32,2.6,2.16s-.37,3.83-.61,5.73c-.41,3.27-.9,6.52-1.28,9.8q-.72,6.21-1.31,12.43c-.26,2.65-.5,5.31-.6,8-.24,6.53-.47,13.06-.56,19.59a102.5,102.5,0,0,0,2.55,22.08c2.48,12,5.17,24,7.56,36.07a132.16,132.16,0,0,1,2,14.82,166.55,166.55,0,0,1,.8,17.89c-.32,12.42-2.61,24.46-8.44,35.62-5.28,10.09-12.9,18-22.19,24.49-11,7.66-23.28,12.8-36.13,16.43-9.89,2.8-19.59,6-28.7,10.81C313.59,438.1,306.12,442.75,299.57,449Zm23.27-111.49a3.47,3.47,0,0,0,.39.54,2.88,2.88,0,0,0,.48.26,4.34,4.34,0,0,1,2.85,4.54c0,3.36.2,6.72.25,10.08q.18,12.29.28,24.59a7.8,7.8,0,0,1-.23,1.89c-.38,1.55-.81,3.09-1.23,4.64l.31.3,9-5.13a5.06,5.06,0,0,1-3-5q-.14-11.88-.27-23.75a7.74,7.74,0,0,1,.37-1.52c.63.88,1.07,1.4,1.41,2,1.39,2.43,2.74,4.88,4.13,7.31.51.88.92,1.9,2.27,2.06L345.49,343l.41.09.59,28.77a25.38,25.38,0,0,0,8-4.67c-2.2-1.05-2.33-2.92-2.35-4.78-.14-11.84-.27-23.67-.34-35.51a34.54,34.54,0,0,1,.56-4.62c.09-.7.21-1.4.39-2.57-2,1.11-3.63,2-5.22,2.94a4.9,4.9,0,0,0-2.25,3.11c-1.85,6.65-3.8,13.26-5.75,19.88a16.65,16.65,0,0,1-1.05,2.21c-.4-.6-.61-.88-.79-1.19-2.27-3.88-4.59-7.73-6.78-11.66-.71-1.27-1.56-1.49-2.66-.87C326.42,335.21,324.68,336.37,322.84,337.52Zm-108.67,1c-.1-.07.06.14.19.12,2-.28,3,1.06,4.26,2.23A9.53,9.53,0,0,0,221,342c-.3-1.13-.52-1.77-.65-2.44-.89-4.76-1.23-9.46,1.42-13.88.26-.43.12-1.09.16-1.64a6,6,0,0,0-4.85,1.24,1.73,1.73,0,0,1-1.85.21,15.92,15.92,0,0,0-12.17,0,12.9,12.9,0,0,0-4.87,19.73c2.14,2.86,5.07,5.16,7.82,7.51s6,4.64,8,7.89c4,6.25,1.48,14-5.18,16.18a5.39,5.39,0,0,1-7.34-5.48,3.34,3.34,0,0,1,3.54-2.8c1,.19,1.47-.39,1.1-1.11a5.9,5.9,0,0,0-2.13-2.49c-2.94-1.57-6.29-.46-8.25,2.5-2.83,4.27-1.31,10,3.47,13.11,5.93,3.87,15.18,1.57,19.42-4.79,2.65-4,3.33-8.38,3-13-.24-3.57-1.16-7-3.81-9.48s-5.51-4.86-8.37-7.15-5.57-4.3-7.19-7.51a6.48,6.48,0,0,1-.88-3.74c.8-4.23,4.18-6.51,8.47-6,2.87.31,4.86,1.9,5.13,4.68C215.17,335.07,214.51,336.69,214.16,338.55Zm115.56,56.19c-.68,0-1.23,0-1.77,0a6,6,0,0,1-5.34-2c-1.6-1.87-3.45-3.69-4.44-5.88-1.63-3.6-2.63-7.48-3.93-11.22-.67-1.92.06-3.26,1.55-4.42a13.35,13.35,0,0,0,2.75-2.48,18.77,18.77,0,0,0,3.76-12c-.25-6-5.3-12.46-13.5-10.82-4.16.83-7.69,2.86-11.13,5.16-.6.4-1.15.85-1.73,1.28l.35.4.67.09c1.72.24,2.41.91,2.62,2.61a17.54,17.54,0,0,1,.15,1.92q.15,11.12.28,22.23c0,2.76,0,5.51,0,8.27,0,3.83,0,7.67,0,11.58a28.88,28.88,0,0,0,8.63-4.94,8.61,8.61,0,0,1-1.32-1,2.45,2.45,0,0,1-.76-1.29c-.14-5.48-.22-11-.29-16.43a7.77,7.77,0,0,1,.3-1.57H307c.15.4.33.79.46,1.2,1.83,5.79,4,11.39,7.71,16.31,2.36,3.16,5.19,5.53,9.3,6A4.92,4.92,0,0,0,329.72,394.74Zm55-142.56-.34.08c-.37-.72-.78-1.42-1.1-2.16Q380.12,243,377,235.8c-.72-1.61-1.41-2-2.86-1.17-1.73.94-3.39,2-5.06,3.06a17.38,17.38,0,0,0-1.56,1.27c1,.38,1.82.62,2.56.95a2.62,2.62,0,0,1,1.83,2.36c.08,2.35.23,4.69.26,7q.18,14.3.3,28.6c0,2.06.13,4.14-.75,6.1a3.08,3.08,0,0,0,0,1c2.67-1.32,5.31-2.31,7.44-4.64-2.2-.79-2-2.52-2.06-4.2-.08-7.09-.18-14.18-.27-21.27a12.78,12.78,0,0,1,.15-1.48,9.43,9.43,0,0,1,1.67,2.5c2.47,5.41,4.89,10.86,7.4,16.25a25.38,25.38,0,0,0,2.48,4.1,6.22,6.22,0,0,0,2,1.64,1.84,1.84,0,0,0,1.41-.12c.15-.06.12-.73,0-1.1-.7-3.4-1.68-6.76-2.07-10.19a87.6,87.6,0,0,1-.47-11.82c.09-4.31.52-8.61.92-12.91.34-3.73,1-7.45,1.25-11.18.24-3,.43-6.06-1.65-8.66a4.12,4.12,0,0,0-6.76.49,1.93,1.93,0,0,0,.2,1.61,13.93,13.93,0,0,0,1.55,1.56,2.72,2.72,0,0,1,.76,1.25,22.1,22.1,0,0,1,.29,4c-.24,5.42-.57,10.83-.87,16.25C385,248.74,384.87,250.46,384.76,252.18Zm-15.47,14.74c-.06-.74-.2-2-.27-3.3a36.14,36.14,0,0,0-3.12-13.41c-2.28-4.87-6.94-7.35-12.47-3.86-3.11,2-4.86,4.94-6.14,8.23a46.89,46.89,0,0,0-2.81,21.86,36.56,36.56,0,0,0,4.45,15,7.85,7.85,0,0,0,11,2.68,14.85,14.85,0,0,0,5.21-6.47C368,281.23,369.07,274.44,369.29,266.92ZM283.8,352.14a21.21,21.21,0,0,0-5.32,10.31c-.59,2.34-.84,4.77-1.29,7.14-1.22,6.37-2.5,12.73-3.71,19.1-1.32,6.91-2.48,13.85-3.92,20.74-.69,3.28-1.38,6.66-3.71,9.34a6.22,6.22,0,0,0-.61,1.51,60,60,0,0,0,11.66-6.68,3.9,3.9,0,0,0-.65-.46c-2.09-.71-2.29-.81-2.07-3,.31-3.13.91-6.24,1.25-9.37a3,3,0,0,1,1.69-2.59c2.38-1.27,4.75-2.57,7.15-3.8,1.85-.95,2.13-.82,2.67,1.15.77,2.81,2,5.54,1.74,8.56-.05.69-.15,1.38-.23,2.13,3-.79,6.78-3,7.77-4.5-1.38-.65-1.85-1.84-2.16-3.28-1.87-8.47-3.81-16.93-5.75-25.38-1.22-5.34-2.52-10.66-3.73-16C284.24,355.53,284.09,354,283.8,352.14Zm-18.26-78.72-.18-.45c-2.45-.52-3.26-1.28-3.31-3.77-.09-5,0-10,0-15a1.87,1.87,0,0,1,.77-1.32q3.64-2.34,7.38-4.54c1-.61,1.55-.28,1.69,1,.08.73.14,1.47.16,2.2.07,3.22.09,6.45.2,9.67.09,2.66.44,5.32-.69,7.87-.06.14,0,.34,0,.74a36.7,36.7,0,0,0,8.88-5.35c-2.87-.73-2.71-2.8-2.72-4.81,0-2.49-.06-5-.07-7.46,0-9.65-.91-19.32.53-28.91-1.91.06-8.89,4.24-9.09,5.58,2.28.64,2.66,1.16,2.66,3.57,0,3.18,0,6.36,0,9.53a2.12,2.12,0,0,1-1.19,2.12c-1.29.71-2.48,1.58-3.76,2.29-1.5.84-3,1.58-4.58,2.36l-.46-.29c.27-5.36-1.52-10.76.85-16.28a36.36,36.36,0,0,0-9.88,5.61,7.38,7.38,0,0,1,1.49,1.18,4.6,4.6,0,0,1,1.11,2.19c.18,5.75.23,11.51.34,17.26,0,1.93.24,3.87.19,5.8-.15,5,1,10-1.19,14.84,0,.05.06.15.21.54Zm-25.64,36.77a12.39,12.39,0,0,0-1.77,1.21,13,13,0,0,0-3.58,7c-1.46,7.39-2.64,14.84-4,22.26-1.17,6.56-2.32,13.12-3.59,19.67-.74,3.84-1.1,7.81-3.21,11.28a5.28,5.28,0,0,0-.36,1.19c4.07-1.38,10.68-5.51,11.53-7.17-2.37-.61-3.32-1.59-3-4.09.33-3.07,1.06-6.1,1.69-9.14a2,2,0,0,1,.89-1.18c1.59-.9,3.24-1.69,4.85-2.54,1-.54,1.61-.06,1.91.84a25,25,0,0,1,1.22,4.35,34.47,34.47,0,0,1,.23,5.56,7.83,7.83,0,0,1-.74,2.2l.41.42c2.93-1.68,5.86-3.33,8.75-5.08.21-.13.18-1,0-1.4a22.87,22.87,0,0,1-1.54-2.87c-3.36-12.09-6.64-24.21-10-36.32A9.38,9.38,0,0,1,239.91,310.18ZM314,319.27a15.8,15.8,0,0,1-1.89-2.79,32.38,32.38,0,0,1-1.18-4.36c-1.85-7.86-3.62-15.75-5.56-23.59-1.23-5-2.69-9.91-2.55-15.11a4.13,4.13,0,0,0-.22-.8,7.23,7.23,0,0,0-1.06,1.42,65,65,0,0,0-2.88,8.13c-1.13,4.94-1.87,10-2.83,14.95-.89,4.62-1.85,9.22-2.76,13.83-1.11,5.6-2.13,11.22-3.37,16.79a74.59,74.59,0,0,1-2.3,7.1l.26.36L299,328.47a3.4,3.4,0,0,0-1.36-.4c-1.71-.33-2.13-.81-2.24-2.56a5.21,5.21,0,0,1,0-1.24c.37-2.07.9-4.12,1.11-6.2a3.19,3.19,0,0,1,1.49-2.62c1.67-1,3.38-2,5.1-3,.73-.41,1.38-.45,1.66.63.74,2.85,1.48,5.68.8,8.66a24.81,24.81,0,0,0-.31,2.67A30.19,30.19,0,0,0,314,319.27Zm63.71,34.56c-.7-1.28-1.67-2.27-1.74-3.31-.26-4.18-.3-8.37-.3-12.55a10.27,10.27,0,0,1,.65-3.48c3.09-8.36,6.27-16.69,9.38-25.05a13.4,13.4,0,0,0,1.26-6c-.46-5-4.45-6.81-8.56-5.19-1.36.54-1.41,1.46-.2,2.26a5.47,5.47,0,0,1,2.74,4.95,24.7,24.7,0,0,1-1,6.46c-1.81,5.37-3.89,10.65-5.9,15.95a11.84,11.84,0,0,1-1.19,1.87,16.71,16.71,0,0,1-1.07-1.65c-1.52-3.17-3.08-6.34-4.47-9.57a6.32,6.32,0,0,1-.3-2.93c.12-1.42.47-2.82.73-4.23l-.29-.33-9.64,5.75a20.89,20.89,0,0,1,2.76,3.3c2.71,5.16,5.28,10.38,7.88,15.59a3.69,3.69,0,0,1,.43,1.43c.2,4.64.31,9.28.54,13.91a13.48,13.48,0,0,1-1.37,7.2,5.33,5.33,0,0,0-.32,1.12l.27.27Zm-66.82-118c-.23.44-.32.62-.41.81a73.85,73.85,0,0,1-3.48,7.29,15,15,0,0,1-9.11,6.92c-1.75.47-2.45.11-2.71-1.62a39.31,39.31,0,0,1-.53-5.32c0-2.57.26-5.15.17-7.72a4.06,4.06,0,0,1,1.74-3.67,9.24,9.24,0,0,1,3.19-1.51,45.94,45.94,0,0,1,5.83-.86c4.55-.45,7.55-3.29,8.06-7.78a6.54,6.54,0,0,0-.18-1.52l-.32-.14c-1.21,3.58-4.09,4.5-7.33,4.9a15.59,15.59,0,0,0-8.88,3.95,12,12,0,0,1-2.11,1.2c-.16-3-.33-5.73-.44-8.43-.14-3.37,1.14-6,4.25-7.5a5.18,5.18,0,0,1,6.81,1.63c.4.54.76,1.12,1.38,2a9.11,9.11,0,0,0,.18-1.66c-.3-2.54-.57-5.1-1-7.62-.32-1.93-.52-2-2.26-1-5.73,3.19-11.46,6.37-17.17,9.6a24.47,24.47,0,0,0-2.5,1.89,6.36,6.36,0,0,0,1,.45c2.8.52,3.56,1.44,3.59,4.22q.11,9.8.28,19.6c0,.41.12.82.12,1.23,0,3.07.13,6.15-.12,9.2a41.79,41.79,0,0,1-1.36,6,.72.72,0,0,0,.3,0c7.22-4.1,14.44-8.18,21.63-12.33a2.44,2.44,0,0,0,.84-1.6,41.69,41.69,0,0,0,.53-4.78C311,239.86,310.92,238,310.92,235.84ZM279.35,341.3a27.12,27.12,0,0,0,2.24-4.76c.81-3.13,1.25-6.35,1.87-9.53.85-4.34,1.77-8.67,2.6-13,1.11-5.83,2.15-11.67,3.24-17.51.84-4.51,1.72-9,2.63-13.81a42,42,0,0,0-9.28,5.48c.66,1.14,1.5,2,1.69,3.07a14.76,14.76,0,0,1,.11,4.8c-.91,6.1-2,12.18-3,18.26-.27,1.58-.72,3.13-1.09,4.7-.45-.25-.59-.46-.65-.69-1.19-4.64-2.52-9.25-3.52-13.93-.83-3.87-2.17-7.78-.39-11.81-2.41.38-9.9,4.83-10.5,6.18,2.88,1.42,3.71,2.45,4.58,5.73.25.93.49,1.85.72,2.79C273.34,318.52,277,329.59,279.35,341.3Zm-32-106.47c-.77.34-1.15.48-1.51.68q-9.27,5.25-18.53,10.54a1.94,1.94,0,0,0-.82,1.14,21.76,21.76,0,0,0-.54,3.65c-.15,3.3-.1,6.62-.34,9.92a30.21,30.21,0,0,1-1.17,4.78c.64-.55,1.18-.81,1.4-1.23a36.36,36.36,0,0,0,2.42-5.17c1-3,1.64-6.07,2.58-9.06a5,5,0,0,1,3.44-3.7,24.29,24.29,0,0,1,.47,3.15c.13,8.33.21,16.66.33,25,0,2.11.21,4.23.21,6.34a44.46,44.46,0,0,1-.3,6.45,22,22,0,0,1-1.59,4.27c4-2.13,8.09-3.8,11.78-6.73-2.56-.29-3.37-1.07-3.38-3.48,0-4.78-.37-9.55-.47-14.33q-.23-11.19-.25-22.37a2.78,2.78,0,0,1,1.3-2c.39-.22,1.55.27,1.9.77A40.07,40.07,0,0,1,247,248a7.56,7.56,0,0,0,3.43,3.76c-1.77-3.76-2-7.48-2.23-11.23C248.07,238.73,247.65,236.9,247.34,234.83ZM325.86,312c-1.68-.94-2.75-2.1-2.76-4.06,0-4.6-.22-9.2-.25-13.8,0-6.91,0-13.81,0-20.72,0-.87,0-1.75,0-2.62a2.88,2.88,0,0,1,1.94-2.6c1.1-.45,1.75.32,2.32,1a7.47,7.47,0,0,1,1.25,2.11c.41,1.11.6,2.3,1,3.42a24.39,24.39,0,0,0,1.23,2.52c0-1.87.06-3.38,0-4.88-.14-3.16-.31-6.32-.55-9.48-.15-1.9-.87-2.23-2.51-1.28-5.6,3.23-11.21,6.45-16.76,9.76a2.72,2.72,0,0,0-1,2c-.06,3.75,0,7.5.07,11.25,0,0,.14.08.43.23.34-.88.74-1.72,1-2.61.58-2,1-4,1.66-5.93a11.21,11.21,0,0,1,1.92-3.13,2.06,2.06,0,0,1,1.61-.4c.2,0,.44.81.46,1.26.2,6.34.55,12.69.5,19-.07,8,.65,16-.61,24.14A22.23,22.23,0,0,0,325.86,312Zm-72,43.42c5.44-3.28,10.5-6.33,15.55-9.41a1.48,1.48,0,0,0,.61-1c.14-1.55.19-3.11.27-4.67.11-2.06.12-4.14.36-6.18A33.84,33.84,0,0,1,271.7,330a10.34,10.34,0,0,0-1.65.91,9.44,9.44,0,0,0-2.65,5c-.56,2.16-1,4.36-1.67,6.49a5.53,5.53,0,0,1-3.07,3.7c-1.36.59-2.31.27-2.6-1.17a27.74,27.74,0,0,1-.49-4.92c-.14-7.92-.31-15.84-.28-23.76,0-5.07-.78-10.25,1.45-15.14l-.32-.34-11.25,6.81a16.14,16.14,0,0,1,1.69.54c1.18.55,2.35,1.16,2.41,2.7.11,2.85.23,5.7.27,8.56q.2,12.37.34,24.73c0,2.48,0,5,0,7.43C253.85,352.7,253.86,353.83,253.86,355.46Zm79-96.85c.79,1.19,1.77,2,1.86,2.9.35,3.47.5,7,.58,10.46q.24,10.49.3,21c0,3.26-.05,6.52-.3,9.77a27.84,27.84,0,0,1-1.26,4.74l9.58-5.52a14.66,14.66,0,0,1-1.94-3.25,17.07,17.07,0,0,1-.35-4.24c-.11-11.23-.24-22.46-.24-33.69a26.52,26.52,0,0,1,.91-5.22,22.37,22.37,0,0,1,.69-2.22l-.33-.25Z"/><path d="M323.08,466.57a7.68,7.68,0,0,1-1.49-1.15,11.4,11.4,0,0,1-1.43-2.34c-.55-1.2-1.4-1.42-2.73-1,0,1.09,0,2.22,0,3.36,0,.88-.38,1-1.17.73v-10c1.7.08,3.37.1,5,.26a2.29,2.29,0,0,1,2.2,2.38,2.47,2.47,0,0,1-1.83,2.85,5.77,5.77,0,0,0-.73.39l2.54,4Zm-5.55-9.07c-.19,3.73-.53,3.26,2.91,3.19A1.39,1.39,0,0,0,322,459.2a1.48,1.48,0,0,0-1.42-1.68A27.41,27.41,0,0,0,317.54,457.5Z"/><path class="cls-10" d="M322.84,337.52c1.84-1.15,3.59-2.31,5.41-3.34,1.1-.62,1.95-.4,2.66.87,2.18,3.93,4.51,7.78,6.78,11.66.18.31.39.59.79,1.19a16.65,16.65,0,0,0,1.05-2.21c2-6.62,3.91-13.23,5.75-19.88a4.9,4.9,0,0,1,2.25-3.11c1.6-.95,3.23-1.83,5.22-2.94-.18,1.17-.29,1.87-.39,2.57a34.54,34.54,0,0,0-.56,4.62c.07,11.84.21,23.67.34,35.51,0,1.86.14,3.73,2.35,4.78a25.38,25.38,0,0,1-8,4.67l-.59-28.77-.41-.09-5.61,17.23c-1.34-.16-1.76-1.18-2.27-2.06-1.39-2.43-2.74-4.88-4.13-7.31-.33-.58-.78-1.1-1.41-2a7.74,7.74,0,0,0-.37,1.52q.11,11.88.27,23.75a5.06,5.06,0,0,0,3,5l-9,5.13-.31-.3c.41-1.54.85-3.08,1.23-4.64a7.8,7.8,0,0,0,.23-1.89q-.11-12.3-.28-24.59c0-3.36-.29-6.72-.25-10.08a4.34,4.34,0,0,0-2.85-4.54,2.88,2.88,0,0,1-.48-.26A3.47,3.47,0,0,1,322.84,337.52Z"/><path class="cls-10" d="M214.16,338.55c.35-1.86,1-3.49.86-5-.27-2.79-2.27-4.37-5.13-4.68-4.29-.47-7.68,1.81-8.47,6a6.48,6.48,0,0,0,.88,3.74c1.62,3.2,4.45,5.31,7.19,7.51s5.72,4.62,8.37,7.15,3.57,5.91,3.81,9.48c.31,4.64-.38,9-3,13-4.24,6.36-13.49,8.66-19.42,4.79-4.79-3.13-6.3-8.84-3.47-13.11,2-3,5.3-4.07,8.25-2.5a5.9,5.9,0,0,1,2.13,2.49c.37.72-.09,1.3-1.1,1.11a3.34,3.34,0,0,0-3.54,2.8,5.39,5.39,0,0,0,7.34,5.48c6.66-2.19,9.15-9.92,5.18-16.18-2.06-3.25-5.16-5.43-8-7.89s-5.68-4.65-7.82-7.51A12.9,12.9,0,0,1,203,325.51a15.92,15.92,0,0,1,12.17,0,1.73,1.73,0,0,0,1.85-.21,6,6,0,0,1,4.85-1.24c0,.54.1,1.21-.16,1.64-2.66,4.41-2.31,9.12-1.42,13.88.12.67.34,1.32.65,2.44a9.53,9.53,0,0,1-2.35-1.13c-1.23-1.17-2.29-2.51-4.26-2.23C214.23,338.69,214.06,338.48,214.16,338.55Z"/><path class="cls-10" d="M329.72,394.74a4.92,4.92,0,0,1-5.21,3.1c-4.11-.5-6.94-2.87-9.3-6-3.67-4.92-5.88-10.52-7.71-16.31-.13-.41-.31-.8-.46-1.2h-.46a7.77,7.77,0,0,0-.3,1.57c.07,5.48.15,11,.29,16.43a2.45,2.45,0,0,0,.76,1.29,8.61,8.61,0,0,0,1.32,1,28.88,28.88,0,0,1-8.63,4.94c0-3.91,0-7.75,0-11.58,0-2.76,0-5.52,0-8.27q-.12-11.12-.28-22.23a17.54,17.54,0,0,0-.15-1.92c-.21-1.7-.9-2.37-2.62-2.61l-.67-.09-.35-.4c.58-.43,1.14-.88,1.73-1.28,3.44-2.3,7-4.33,11.13-5.16,8.2-1.64,13.25,4.77,13.5,10.82a18.77,18.77,0,0,1-3.76,12,13.35,13.35,0,0,1-2.75,2.48c-1.49,1.16-2.21,2.51-1.55,4.42,1.3,3.75,2.31,7.63,3.93,11.22,1,2.18,2.84,4,4.44,5.88a6,6,0,0,0,5.34,2C328.49,394.7,329,394.74,329.72,394.74Zm-13.93-36.19-.28-.08c-.11-1-.18-1.92-.32-2.87-.53-3.71-2.63-5.5-6.08-5.21-1.53.13-2.84,1.19-2.84,2.5,0,5.65.14,11.31.19,17a1.52,1.52,0,0,0,1.93,1.58,6,6,0,0,0,5.09-3.75C314.52,364.74,315,361.61,315.79,358.56Z"/><path class="cls-10" d="M384.76,252.18c.11-1.72.23-3.45.33-5.17.3-5.41.63-10.83.87-16.25a22.1,22.1,0,0,0-.29-4,2.72,2.72,0,0,0-.76-1.25,13.93,13.93,0,0,1-1.55-1.56,1.93,1.93,0,0,1-.2-1.61,4.12,4.12,0,0,1,6.76-.49c2.08,2.6,1.88,5.66,1.65,8.66-.3,3.74-.91,7.45-1.25,11.18-.4,4.3-.82,8.6-.92,12.91a87.6,87.6,0,0,0,.47,11.82c.39,3.43,1.38,6.79,2.07,10.19.08.37.1,1,0,1.1a1.84,1.84,0,0,1-1.41.12,6.22,6.22,0,0,1-2-1.64,25.38,25.38,0,0,1-2.48-4.1c-2.51-5.39-4.93-10.84-7.4-16.25a9.43,9.43,0,0,0-1.67-2.5,12.78,12.78,0,0,0-.15,1.48c.08,7.09.18,14.18.27,21.27,0,1.67-.14,3.4,2.06,4.2-2.13,2.33-4.77,3.32-7.44,4.64a3.08,3.08,0,0,1,0-1c.88-2,.77-4,.75-6.1q-.14-14.3-.3-28.6c0-2.35-.17-4.69-.26-7a2.62,2.62,0,0,0-1.83-2.36c-.74-.33-1.52-.57-2.56-.95a17.38,17.38,0,0,1,1.56-1.27c1.67-1,3.33-2.12,5.06-3.06,1.45-.79,2.14-.45,2.86,1.17q3.18,7.16,6.36,14.31c.33.74.73,1.44,1.1,2.16Z"/><path class="cls-10" d="M369.29,266.92c-.21,7.52-1.32,14.31-4.17,20.71a14.85,14.85,0,0,1-5.21,6.47,7.85,7.85,0,0,1-11-2.68,36.56,36.56,0,0,1-4.45-15,46.89,46.89,0,0,1,2.81-21.86c1.29-3.29,3-6.27,6.14-8.23,5.53-3.49,10.19-1,12.47,3.86A36.14,36.14,0,0,1,369,263.62C369.09,264.9,369.23,266.18,369.29,266.92Zm-6.33-.39c-.19-2.57-.41-6.37-.8-10.16-.23-2.27-.59-4.55-2.6-6.13a3,3,0,0,0-3.67-.27,6.35,6.35,0,0,0-2.89,4.65c-.76,5.15-1.63,10.32-1.87,15.5a82.63,82.63,0,0,0,.78,12.59,12.76,12.76,0,0,0,3,7.4c1.09,1.21,2.38,1.39,3.48.21a10.08,10.08,0,0,0,2.15-3.57C362.54,280.6,362.72,274.18,363,266.53Z"/><path class="cls-10" d="M283.8,352.14c.29,1.87.44,3.4.77,4.88,1.21,5.34,2.5,10.67,3.73,16,1.94,8.46,3.88,16.91,5.75,25.38.32,1.43.78,2.63,2.16,3.28-1,1.52-4.77,3.7-7.77,4.5.08-.75.18-1.44.23-2.13.24-3-1-5.75-1.74-8.56-.54-2-.82-2.09-2.67-1.15-2.4,1.23-4.77,2.53-7.15,3.8a3,3,0,0,0-1.69,2.59c-.35,3.13-.95,6.23-1.25,9.37-.22,2.22,0,2.32,2.07,3a3.9,3.9,0,0,1,.65.46,60,60,0,0,1-11.66,6.68,6.22,6.22,0,0,1,.61-1.51c2.33-2.68,3-6.05,3.71-9.34,1.44-6.88,2.61-13.83,3.92-20.74,1.21-6.37,2.49-12.73,3.71-19.1.46-2.38.71-4.8,1.29-7.14A21.21,21.21,0,0,1,283.8,352.14Zm-2.53,20.2-.53,0c-1.26,6.65-2.85,13.25-3.32,20.2,2.67-.47,4.55-1.88,6.56-3a1.84,1.84,0,0,0,.95-2.4c-.65-2.56-1.19-5.15-1.82-7.72C282.53,377,281.89,374.69,281.28,372.33Z"/><path class="cls-10" d="M265.55,273.42,255,279.55c-.15-.39-.23-.49-.21-.54,2.19-4.8,1-9.88,1.19-14.84.06-1.93-.15-3.86-.19-5.8-.11-5.75-.15-11.51-.34-17.26a4.6,4.6,0,0,0-1.11-2.19,7.38,7.38,0,0,0-1.49-1.18,36.36,36.36,0,0,1,9.88-5.61c-2.37,5.51-.58,10.91-.85,16.28l.46.29c1.53-.78,3.08-1.53,4.58-2.36,1.28-.72,2.48-1.59,3.76-2.29a2.12,2.12,0,0,0,1.19-2.12c0-3.18,0-6.36,0-9.53,0-2.42-.38-2.93-2.66-3.57.2-1.34,7.18-5.52,9.09-5.58-1.44,9.59-.58,19.26-.53,28.91,0,2.49.06,5,.07,7.46,0,2-.15,4.08,2.72,4.81a36.7,36.7,0,0,1-8.88,5.35c0-.4-.11-.6,0-.74,1.13-2.55.78-5.22.69-7.87-.11-3.22-.13-6.45-.2-9.67,0-.73-.08-1.47-.16-2.2-.14-1.24-.65-1.57-1.69-1q-3.74,2.19-7.38,4.54a1.87,1.87,0,0,0-.77,1.32c-.05,5-.1,10,0,15,0,2.49.86,3.25,3.31,3.77Z"/><path class="cls-10" d="M239.91,310.18a9.38,9.38,0,0,0-.27,6.2c3.32,12.11,6.6,24.22,10,36.32a22.87,22.87,0,0,0,1.54,2.87c.18.4.22,1.27,0,1.4-2.88,1.75-5.82,3.4-8.75,5.08l-.41-.42a7.83,7.83,0,0,0,.74-2.2,34.47,34.47,0,0,0-.23-5.56,25,25,0,0,0-1.22-4.35c-.3-.9-.89-1.38-1.91-.84-1.61.85-3.27,1.64-4.85,2.54a2,2,0,0,0-.89,1.18c-.63,3-1.36,6.07-1.69,9.14-.27,2.5.68,3.48,3,4.09-.86,1.66-7.46,5.79-11.53,7.17a5.28,5.28,0,0,1,.36-1.19c2.11-3.47,2.46-7.44,3.21-11.28,1.27-6.54,2.42-13.11,3.59-19.67,1.32-7.42,2.5-14.87,4-22.26a13,13,0,0,1,3.58-7A12.39,12.39,0,0,1,239.91,310.18Zm-5,35.43.36.33c1.43-.85,2.9-1.64,4.27-2.58A1.65,1.65,0,0,0,240,342c-.57-3.78-1.21-7.56-1.84-11.33-.1-.62-.25-1.23-.38-1.84l-.5,0C236.21,334.4,235,339.91,234.9,345.61Z"/><path class="cls-10" d="M314,319.27a30.19,30.19,0,0,1-8.75,5.16,24.81,24.81,0,0,1,.31-2.67c.69-3-.06-5.81-.8-8.66-.28-1.08-.93-1-1.66-.63-1.72,1-3.43,1.95-5.1,3a3.19,3.19,0,0,0-1.49,2.62c-.22,2.08-.74,4.13-1.11,6.2a5.21,5.21,0,0,0,0,1.24c.11,1.75.52,2.22,2.24,2.56a3.4,3.4,0,0,1,1.36.4l-11.28,6.73-.26-.36a74.59,74.59,0,0,0,2.3-7.1c1.24-5.57,2.25-11.19,3.37-16.79.92-4.61,1.88-9.21,2.76-13.83,1-5,1.69-10,2.83-14.95a65,65,0,0,1,2.88-8.13,7.23,7.23,0,0,1,1.06-1.42,4.13,4.13,0,0,1,.22.8c-.14,5.21,1.32,10.13,2.55,15.11,1.94,7.84,3.71,15.72,5.56,23.59a32.38,32.38,0,0,0,1.18,4.36A15.8,15.8,0,0,0,314,319.27Zm-12.53-26.39-.53,0a93.47,93.47,0,0,0-2.51,17.26c1.86-1.1,3.4-1.95,4.86-2.92a1.6,1.6,0,0,0,.34-1.3c-.35-2.58-.76-5.15-1.19-7.72C302.17,296.41,301.82,294.65,301.49,292.88Z"/><path class="cls-10" d="M377.73,353.83,368,359.6l-.27-.27a5.33,5.33,0,0,1,.32-1.12,13.48,13.48,0,0,0,1.37-7.2c-.22-4.63-.34-9.27-.54-13.91a3.69,3.69,0,0,0-.43-1.43c-2.6-5.21-5.17-10.44-7.88-15.59a20.89,20.89,0,0,0-2.76-3.3l9.64-5.75.29.33c-.25,1.41-.61,2.81-.73,4.23a6.32,6.32,0,0,0,.3,2.93c1.4,3.23,3,6.39,4.47,9.57a16.71,16.71,0,0,0,1.07,1.65,11.84,11.84,0,0,0,1.19-1.87c2-5.3,4.09-10.58,5.9-15.95a24.7,24.7,0,0,0,1-6.46,5.47,5.47,0,0,0-2.74-4.95c-1.21-.81-1.17-1.73.2-2.26,4.11-1.62,8.1.24,8.56,5.19a13.4,13.4,0,0,1-1.26,6c-3.11,8.36-6.29,16.69-9.38,25.05a10.27,10.27,0,0,0-.65,3.48c0,4.19,0,8.38.3,12.55C376.06,351.57,377,352.55,377.73,353.83Z"/><path class="cls-10" d="M310.92,235.84c0,2.17.07,4,0,5.86a41.69,41.69,0,0,1-.53,4.78,2.44,2.44,0,0,1-.84,1.6c-7.19,4.15-14.41,8.24-21.63,12.33a.72.72,0,0,1-.3,0,41.79,41.79,0,0,0,1.36-6c.25-3.05.11-6.13.12-9.2,0-.41-.11-.82-.12-1.23q-.15-9.8-.28-19.6c0-2.79-.79-3.71-3.59-4.22a6.36,6.36,0,0,1-1-.45,24.47,24.47,0,0,1,2.5-1.89c5.71-3.22,11.45-6.41,17.17-9.6,1.74-1,1.94-.94,2.26,1,.42,2.53.69,5.08,1,7.62a9.11,9.11,0,0,1-.18,1.66c-.62-.92-1-1.49-1.38-2a5.18,5.18,0,0,0-6.81-1.63c-3.11,1.54-4.4,4.13-4.25,7.5.11,2.7.28,5.39.44,8.43a12,12,0,0,0,2.11-1.2,15.59,15.59,0,0,1,8.88-3.95c3.24-.41,6.12-1.32,7.33-4.9l.32.14a6.54,6.54,0,0,1,.18,1.52c-.51,4.49-3.51,7.33-8.06,7.78a45.94,45.94,0,0,0-5.83.86,9.24,9.24,0,0,0-3.19,1.51,4.06,4.06,0,0,0-1.74,3.67c.08,2.57-.21,5.15-.17,7.72a39.31,39.31,0,0,0,.53,5.32c.26,1.73,1,2.09,2.71,1.62a15,15,0,0,0,9.11-6.92,73.85,73.85,0,0,0,3.48-7.29C310.59,236.46,310.69,236.28,310.92,235.84Z"/><path class="cls-10" d="M279.35,341.3c-2.37-11.71-6-22.78-8.75-34.07-.23-.93-.47-1.86-.72-2.79-.87-3.28-1.7-4.3-4.58-5.73.6-1.34,8.09-5.79,10.5-6.18-1.78,4-.44,7.94.39,11.81,1,4.68,2.33,9.29,3.52,13.93.06.23.2.45.65.69.37-1.57.82-3.12,1.09-4.7,1-6.08,2.09-12.16,3-18.26a14.76,14.76,0,0,0-.11-4.8c-.19-1-1-1.93-1.69-3.07a42,42,0,0,1,9.28-5.48c-.91,4.79-1.79,9.3-2.63,13.81-1.09,5.83-2.13,11.68-3.24,17.51-.83,4.35-1.75,8.68-2.6,13-.63,3.18-1.06,6.4-1.87,9.53A27.12,27.12,0,0,1,279.35,341.3Z"/><path class="cls-10" d="M247.34,234.83c.31,2.08.73,3.9.83,5.74.2,3.75.46,7.47,2.23,11.23A7.56,7.56,0,0,1,247,248a40.07,40.07,0,0,0-2.69-4.6c-.35-.5-1.51-1-1.9-.77a2.78,2.78,0,0,0-1.3,2q0,11.19.25,22.37c.1,4.78.46,9.56.47,14.33,0,2.42.82,3.19,3.38,3.48-3.69,2.93-7.8,4.6-11.78,6.73A22,22,0,0,0,235,287.3a44.46,44.46,0,0,0,.3-6.45c0-2.11-.18-4.23-.21-6.34-.12-8.33-.19-16.66-.33-25a24.29,24.29,0,0,0-.47-3.15,5,5,0,0,0-3.44,3.7c-.93,3-1.59,6.08-2.58,9.06a36.36,36.36,0,0,1-2.42,5.17c-.22.43-.76.68-1.4,1.23a30.21,30.21,0,0,0,1.17-4.78c.24-3.3.19-6.61.34-9.92a21.76,21.76,0,0,1,.54-3.65,1.94,1.94,0,0,1,.82-1.14q9.24-5.31,18.53-10.54C246.18,235.31,246.57,235.17,247.34,234.83Z"/><path class="cls-10" d="M325.86,312a22.23,22.23,0,0,1-9.1,5.23c1.27-8.11.55-16.14.61-24.14.05-6.34-.29-12.69-.5-19,0-.45-.26-1.24-.46-1.26a2.06,2.06,0,0,0-1.61.4,11.21,11.21,0,0,0-1.92,3.13c-.69,1.93-1.09,4-1.66,5.93-.26.89-.66,1.73-1,2.61-.29-.15-.43-.19-.43-.23,0-3.75-.13-7.5-.07-11.25a2.72,2.72,0,0,1,1-2c5.55-3.32,11.16-6.53,16.76-9.76,1.64-.95,2.36-.62,2.51,1.28.24,3.16.41,6.32.55,9.48.07,1.5,0,3,0,4.88a24.39,24.39,0,0,1-1.23-2.52c-.39-1.12-.57-2.31-1-3.42a7.47,7.47,0,0,0-1.25-2.11c-.57-.69-1.22-1.45-2.32-1a2.88,2.88,0,0,0-1.94,2.6c-.06.87,0,1.75,0,2.62,0,6.91,0,13.81,0,20.72,0,4.6.22,9.2.25,13.8C323.11,309.94,324.18,311.09,325.86,312Z"/><path class="cls-10" d="M253.86,355.46c0-1.63,0-2.76,0-3.89,0-2.48.07-5,0-7.43q-.14-12.37-.34-24.73c0-2.85-.16-5.7-.27-8.56-.06-1.54-1.23-2.15-2.41-2.7a16.14,16.14,0,0,0-1.69-.54l11.25-6.81.32.34c-2.22,4.89-1.42,10.07-1.45,15.14,0,7.92.14,15.84.28,23.76a27.74,27.74,0,0,0,.49,4.92c.29,1.44,1.23,1.76,2.6,1.17a5.53,5.53,0,0,0,3.07-3.7c.65-2.13,1.11-4.33,1.67-6.49a9.44,9.44,0,0,1,2.65-5,10.34,10.34,0,0,1,1.65-.91,33.84,33.84,0,0,0-1.06,4.21c-.23,2-.25,4.12-.36,6.18-.08,1.56-.13,3.12-.27,4.67a1.48,1.48,0,0,1-.61,1C264.36,349.13,259.3,352.18,253.86,355.46Z"/><path class="cls-10" d="M332.9,258.61l9.51-5.53.33.25a22.37,22.37,0,0,0-.69,2.22,26.52,26.52,0,0,0-.91,5.22c0,11.23.13,22.46.24,33.69a17.07,17.07,0,0,0,.35,4.24,14.66,14.66,0,0,0,1.94,3.25l-9.58,5.52a27.84,27.84,0,0,0,1.26-4.74c.24-3.25.32-6.51.3-9.77q-.06-10.49-.3-21c-.08-3.49-.23-7-.58-10.46C334.67,260.61,333.69,259.8,332.9,258.61Z"/><path class="cls-10" d="M317.54,457.5a27.41,27.41,0,0,1,3.06,0A1.48,1.48,0,0,1,322,459.2a1.39,1.39,0,0,1-1.57,1.49C317,460.76,317.35,461.23,317.54,457.5Z"/><path d="M315.79,358.56c-.75,3.05-1.27,6.18-2.31,9.13a6,6,0,0,1-5.09,3.75,1.52,1.52,0,0,1-1.93-1.58c0-5.65-.16-11.31-.19-17,0-1.3,1.31-2.37,2.84-2.5,3.45-.29,5.56,1.51,6.08,5.21.14,1,.22,1.91.32,2.87Z"/><path d="M363,266.53c-.24,7.65-.42,14.07-2.47,20.23a10.08,10.08,0,0,1-2.15,3.57c-1.09,1.18-2.38,1-3.48-.21a12.76,12.76,0,0,1-3-7.4,82.63,82.63,0,0,1-.78-12.59c.24-5.19,1.11-10.35,1.87-15.5A6.35,6.35,0,0,1,355.9,250a3,3,0,0,1,3.67.27c2,1.58,2.37,3.86,2.6,6.13C362.55,260.16,362.77,264,363,266.53Z"/><path d="M281.28,372.33c.62,2.36,1.26,4.71,1.84,7.08.63,2.57,1.17,5.16,1.82,7.72a1.84,1.84,0,0,1-.95,2.4c-2,1.15-3.89,2.57-6.56,3,.47-7,2.06-13.55,3.32-20.2Z"/><path d="M234.9,345.61c.08-5.69,1.31-11.21,2.39-16.75l.5,0c.13.61.27,1.22.38,1.84.63,3.77,1.27,7.55,1.84,11.33a1.65,1.65,0,0,1-.48,1.36c-1.37.93-2.84,1.73-4.27,2.58Z"/><path d="M301.49,292.88c.33,1.77.68,3.53,1,5.3.43,2.57.84,5.14,1.19,7.72a1.6,1.6,0,0,1-.34,1.3c-1.46,1-3,1.82-4.86,2.92A93.47,93.47,0,0,1,301,292.86Z"/><text class="cls-12" transform="translate(81.35 506.07)"><tspan xml:space="preserve">  Until Dec 31st, all donations are being </tspan><tspan x="78.26" y="30">mat</tspan><tspan class="cls-13" x="119.91" y="30">c</tspan><tspan x="131.96" y="30">hed </tspan><tspan class="cls-13" x="179.21" y="30">b</tspan><tspan x="192.66" y="30">y our sponsors. </tspan><tspan x="-1.43" y="66">Donate n</tspan><tspan class="cls-14" x="100" y="66">o</tspan><tspan x="113.6" y="66">w to help us g</tspan><tspan class="cls-13" x="266.45" y="66">i</tspan><tspan class="cls-14" x="272.95" y="66">v</tspan><tspan x="285.15" y="66">e </tspan><tspan class="cls-15" x="304.6" y="66">double</tspan><tspan class="cls-16" x="394.66" y="66"> </tspan><tspan x="403" y="66">the </tspan><tspan x="73.19" y="96">help this </tspan><tspan class="cls-13" x="173.24" y="96">c</tspan><tspan x="185.29" y="96">hristmas season.</tspan></text><rect class="cls-17" x="177.84" y="658.82" width="243.33" height="71.18" rx="12" ry="12"/><text class="cls-18" transform="translate(205.05 709.75)">DO<tspan class="cls-19" x="74.1" y="0">N</tspan><tspan class="cls-20" x="109.05" y="0">A</tspan><tspan x="136.33" y="0">TE</tspan></text></svg>