<svg id="Layer_1" data-name="Layer 1" xmlns="http://www.w3.org/2000/svg" viewBox="0 0 119.83 97.31"><defs><style>.cls-1{fill:#ef3e42;}.cls-2{fill:none;stroke:#fff;stroke-linecap:round;stroke-width:0.75px;}.cls-3{fill:#fff;}.cls-4{fill:#231f20;}</style></defs><title>mostgood</title><path class="cls-1" d="M59.33,56a22.1,22.1,0,0,1,8-4.94c3.64-1.1,13.06-2.79,15.25-12.44,1.73-7.57-1.54-16.08-1.91-19.89-.33-3.37.68-11,.85-12.17A1.62,1.62,0,0,0,79.26,4.8a28.14,28.14,0,0,1-9.06,1.79c-4.27.08-9.53-3.05-10.88-5.13C58,3.53,52.71,6.66,48.45,6.58A28.14,28.14,0,0,1,39.39,4.8a1.62,1.62,0,0,0-2.22,1.77c.17,1.17,1.18,8.8.85,12.17-.37,3.81-3.64,12.32-1.91,19.89C38.31,48.27,47.72,50,51.36,51.06a22.08,22.08,0,0,1,8,4.94"/><path class="cls-2" d="M59.33,54a21.09,21.09,0,0,1,8.38-4.61c7.23-1.9,11.51-5.16,13.1-10.06,2.28-7-.89-14.87-1.53-20.09-.43-3.57.44-10.51.58-11.31C80.18,6.25,80,6,78.58,6.53a29,29,0,0,1-9.12,1.4c-3.53-.11-7.62-2.27-10.14-4.3-2.51,2-6.61,4.19-10.13,4.3a29,29,0,0,1-9.12-1.4c-1.4-.5-1.6-.28-1.28,1.43.15.8,1,7.74.58,11.31-.63,5.22-3.8,13.08-1.53,20.09,1.59,4.9,5.88,8.16,13.1,10.06A21.1,21.1,0,0,1,59.33,54Z"/><path class="cls-3" d="M60.59,8.67a9.59,9.59,0,0,1,.11,1.61,1.28,1.28,0,0,0-1-.84,1.56,1.56,0,0,0-1.28.86,8,8,0,0,0,0,2.29c.35-.07.62-.42.95-.6.79-.53,2.14-.11,2.49-1.23l0-.07a1.53,1.53,0,0,1-.18,1C61,13.06,59,12,58.41,13.39a13,13,0,0,0,.13,3c.15.18.4.11.59,0a3.8,3.8,0,0,0,2.32-2.78h.07c-.07.73-.07,1.5-.2,2.18A46.71,46.71,0,0,1,57,18.25c.71-1.28.22-3,.33-4.57-.07-.88-.07-1.68-.07-2.58a.82.82,0,0,0-.33-.44,3.73,3.73,0,0,0-.49-.11,1.29,1.29,0,0,1,.57-.44c1.08-.68,2.23-1.24,3.31-1.85.27,0,.13.29.24.42"/><path class="cls-3" d="M76.56,11.14a8.23,8.23,0,0,1-.07,3.2,16.74,16.74,0,0,0,.31,7c0,.18-.18.18-.26.13a2.77,2.77,0,0,1-1-1.48C75,19,74.62,17.8,74,16.79l-.07.13L74,21.66c0,.15.24.26.35.33a4.83,4.83,0,0,1-1.37.84c0-.22.16-.44.16-.71,0-2.49,0-5.07-.11-7.46-.11-.37-.53-.4-.82-.53a6.53,6.53,0,0,1,1.35-.84c.2-.09.35.11.4.26.49,1,.88,2.14,1.43,3.15l.11-.07c0-1.61.29-3.2.15-4.83-.07-.33-.68-.44-.48-.82.24-.2.48-.44.82-.33s.42.29.6.46"/><path class="cls-3" d="M55.36,11.16c-.07.22-.18.49-.24.73l.07,6.42c0,.18,0,.37.18.51l.31.18A7.94,7.94,0,0,1,54,20l.07-.2.11-.46-.09-3.37c-.22-.24-.46.09-.68.15-.4.31-.93.46-1.23.84a18.08,18.08,0,0,0,.07,3.29.62.62,0,0,0,.46.37h.15a8.93,8.93,0,0,1-2,1.19,3,3,0,0,0,.29-1L51,14.5c0-.29-.33-.42-.49-.57a7.52,7.52,0,0,1,1.83-1c-.46.79-.13,2-.18,3l.09.13A9.8,9.8,0,0,0,54,15l.09-.2,0-2.23a.53.53,0,0,0-.37-.37h-.15c0-.22.22-.2.33-.35a8.16,8.16,0,0,1,1.46-.73"/><path class="cls-3" d="M49.5,13.66A9,9,0,0,0,50,16.57c-.75-.4-.62-1.3-1.32-1.76-.22-.07-.35.11-.44.26-.07,2.58.11,4.94.15,7.45a.5.5,0,0,0,.37.29h.26a15.75,15.75,0,0,1-2.29,1.3c.73-.77.35-2,.42-3L47.09,16c0-.13,0-.31-.13-.42-.64.2-.66,1-.93,1.48a3.38,3.38,0,0,1-.82,2.09h-.09c.57-1,.09-2.4.44-3.53,1.26-.71,2.51-1.52,3.84-2.16l.09.24"/><path class="cls-3" d="M71.81,16.19a9.41,9.41,0,0,1-.15,7.26c-.33.55-.77,1.21-1.46,1.32a1.63,1.63,0,0,1-1.39-.49,8.26,8.26,0,0,1-.88-5.69c.31-1.3.77-3.07,2.4-3.33a1.62,1.62,0,0,1,1.48.93m-1.61-.09c-.62.2-.79.84-.88,1.39a13.11,13.11,0,0,0,.07,5.71c.15.31.33.86.82.82s.64-.82.82-1.3a15.9,15.9,0,0,0,0-6C70.87,16.44,70.65,16.08,70.2,16.11Z"/><path class="cls-3" d="M67.47,16.88a9.26,9.26,0,0,0-.31,1v3.77c0,1.32,0,2.69.13,3.95a.84.84,0,0,0,.37.35l0,.07a10.28,10.28,0,0,1-1.79,1,3.22,3.22,0,0,0,.33-1.87l-.07-5.12L66,18.33a1.27,1.27,0,0,0-.37-.4c.46-.4,1-.6,1.52-.95.11,0,.2-.11.31-.11"/><path class="cls-3" d="M65,18.51c.18.93.09,2,.18,2.87-.44-.51-.22-1.37-.93-1.72-.24-.07-.4.13-.53.29l-.07.24,0,4.76.07,2.54a1,1,0,0,0,.48.49,4.38,4.38,0,0,1-1.7,1l.15-.79,0-4.15-.07-3.37a.27.27,0,0,0-.44,0c-.62.62-.49,1.54-.88,2.23l0,0a19.17,19.17,0,0,0,0-2.25l.09-.2c1.17-.62,2.32-1.37,3.49-2l.22.15"/><path class="cls-3" d="M57.94,22.48a6.34,6.34,0,0,0-.42,1.7l-.29,1.54-.79,4.39c-.4,1.1-.2,2.54-1,3.4A8,8,0,0,0,55,31.43l-1.19-4.52c-.13-.57-.29-1.3-1-1.45v-.09a9,9,0,0,1,2-1.1c-.31.33-.2.86-.18,1.3.22,1.26.59,2.47.88,3.71l.13,0c.31-1.08.4-2.23.62-3.33.07-.73.4-1.57,0-2.27a.35.35,0,0,0-.31-.18,8.57,8.57,0,0,1,1.72-1.06h.16"/><path class="cls-3" d="M75.7,25.85a1.5,1.5,0,0,1,0,1.3c-.57,1.81-1.35,3.55-2,5.34a24.72,24.72,0,0,0,0,2.87c0,.18.26.31.35.44A21.39,21.39,0,0,1,72.19,37a4.63,4.63,0,0,0,.38-1.15,31.2,31.2,0,0,0-.11-3.22c-.53-1.15-1.08-2.27-1.7-3.37l-.42-.31a9.43,9.43,0,0,1,1.87-1.08c-.09.44-.33,1,0,1.5.35.64.55,1.32.95,1.94.2.09.2-.2.31-.29a20.75,20.75,0,0,0,1.34-4.1,1.22,1.22,0,0,0-.71-1.19l0-.24a1.24,1.24,0,0,1,1.24,0c.2,0,.24.29.35.42"/><path class="cls-3" d="M51.68,28c0,2,0,4,.11,6.09.07.15,0,.35.26.42s.37-.09.55-.18c.77-.79.37-2.12,1.26-2.84H54a5.1,5.1,0,0,0-.26,2.18c0,.22,0,.46-.07.68-.95.66-2,1.19-3,1.76l-.07,0,.07-1-.09-5.16,0-2.18a.83.83,0,0,0-.77-.53A13.44,13.44,0,0,1,52,25.9,4.29,4.29,0,0,0,51.68,28"/><path class="cls-3" d="M69.34,29.49c0,.35-.18.68-.18,1.06v3L69.28,38c0,.2.24.33.4.46a5.65,5.65,0,0,1-1.54.86,4.53,4.53,0,0,0,.07-1.46l-.09-4-.11,0c-.4,1.08-.68,2.18-1.08,3.26-.22-.07-.35-.33-.44-.53-.35-.53-.55-1.06-.93-1.57l-.18.11c.09,1.76,0,3.4.11,5.16.11.15.31.26.42.4a7.31,7.31,0,0,1-1.65.95,4.19,4.19,0,0,0,.31-1.26l0-3.75-.09-3.18c-.09-.31-.42-.46-.68-.57.4-.29.84-.73,1.35-.75.51.86,1,1.72,1.52,2.6.18.09.18-.18.26-.24.37-1.41.79-2.78,1.21-4.19a4.1,4.1,0,0,1,1.26-.77"/><path class="cls-3" d="M44.64,30.51a3.71,3.71,0,0,0-.2,3.07c-.37,0-.57-.37-.82-.57-.13,0-.4.07-.49-.09a1.45,1.45,0,0,0,.27-.73,1.05,1.05,0,0,0-.53-.9,1.61,1.61,0,0,0-1.63.13,1.27,1.27,0,0,0-.44,1.37c.71,1.59,2.71,2.05,3.53,3.66a4,4,0,0,1-.42,3.7,2.93,2.93,0,0,1-2.82,1.06,2.15,2.15,0,0,1-1.57-1.41,1.62,1.62,0,0,1,.57-1.74,1.25,1.25,0,0,1,1.3,0,.71.71,0,0,1,.29.51c-.11.18-.29,0-.44.07a1,1,0,0,0-.49.49c0,.29,0,.51.13.71a1.17,1.17,0,0,0,1.24.44,2,2,0,0,0,1.39-1.54c.31-2.65-3.18-3.07-3.75-5.34a2.41,2.41,0,0,1,1-2.65,3,3,0,0,1,2.84-.11,1.28,1.28,0,0,1,1.06-.35v.24"/><path class="cls-3" d="M48.13,27.64a1.14,1.14,0,0,0-.22.88c.71,2.38,1.28,4.81,2,7.19,0,.26.38.44.35.71a9.54,9.54,0,0,1-1.81,1,2.59,2.59,0,0,0,0-2.25c-.15-.44-.27-.33-.49-.25s-.66.36-.81.42-.29.49-.33.71c-.1.49-.59,1.73.17,2.05.11,0,.16.07.27,0A10.68,10.68,0,0,1,45,39.46c.09-.33.29-.6.4-.9.66-3.15,1.12-6.4,1.74-9.55.24-.51.42-1.21,1-1.37m-.44,3.46-.16.06a19.72,19.72,0,0,0-.45,3.25,2.42,2.42,0,0,0,1.06-.64Z"/><path class="cls-3" d="M63.37,35.49a3.21,3.21,0,0,1-.42,3.11c-.24.46-1,.62-.9,1.26.33,1.34.71,2.8,1.94,3.64a1.81,1.81,0,0,0,1,.11c0,.31-.42.48-.71.55-1.54.09-2.36-1.59-2.93-2.71-.2-.55-.42-1.1-.57-1.65l-.11-.11-.11.13c0,1.12.07,2.29,0,3.42.07.22.37.18.37.37a6.19,6.19,0,0,1-1.59.88,21.15,21.15,0,0,0,.07-3.13c0-1.72,0-3.57-.11-5.34a.54.54,0,0,0-.4-.33h-.29a4,4,0,0,1,1.21-.86,2.24,2.24,0,0,1,3.48.66m-2.18-.31a.66.66,0,0,0-.6.4,25.47,25.47,0,0,0,0,3.44c0,.15.22.18.35.2a1.4,1.4,0,0,0,1-.66,3.71,3.71,0,0,0,0-3.13A1.53,1.53,0,0,0,61.18,35.18Z"/><path class="cls-3" d="M57.39,40.43l.93,4.08c0,.2.26.35.37.44a5,5,0,0,1-1.48.82,4,4,0,0,0-.31-2.25c-.07-.22-.35-.09-.46,0a6.86,6.86,0,0,0-1.65.95,12.63,12.63,0,0,0-.29,2.38.48.48,0,0,0,.49.26l0,.11a12.45,12.45,0,0,1-2.1,1.19c0-.26.31-.44.42-.71a25.63,25.63,0,0,0,1-4.32c.35-2.05.82-4.06,1.15-6.11a4.39,4.39,0,0,1,.95-1.68c.16,1.7.73,3.22,1,4.85m-1.57-1.19-.15.44c-.18,1.19-.48,2.34-.55,3.53a3.82,3.82,0,0,0,1.46-.68.67.67,0,0,0,0-.42C56.29,41.16,56.2,40.15,55.82,39.24Z"/><path class="cls-1" d="M61.39,56.19a1.71,1.71,0,1,1,1.71,1.69,1.68,1.68,0,0,1-1.71-1.69m1.71,1.41a1.4,1.4,0,1,0-1.37-1.41A1.36,1.36,0,0,0,63.1,57.59Zm-.36-.43h-.29V55.22h.74c.46,0,.69.17.69.55a.51.51,0,0,1-.5.54l.55.86h-.33l-.51-.84h-.34Zm.35-1.09c.25,0,.47,0,.47-.32s-.22-.29-.42-.29h-.4v.6Z"/><path class="cls-3" d="M60.79,25.08c.33,1.26.55,2.58.93,3.84,0,.2.33.27.33.42a6.44,6.44,0,0,1-1.63.95,4.37,4.37,0,0,0,.11-1.35l-.2-.86c-.07-.16-.26-.09-.37,0-.37.35-.95.4-1.19.86,0,.64-.35,1.19-.22,1.87.13.26.42.22.68.26A18.84,18.84,0,0,1,57,32.32h0c.88-2,1-4.32,1.48-6.46.46-1.74.44-3.66,1.32-5.23l.11-.07c-.07,1.59.6,3,.86,4.52m-1.07-.8-.16.06a19.63,19.63,0,0,0-.45,3.25A2.42,2.42,0,0,0,60.16,27Z"/><path class="cls-4" d="M105.83,71.41a33.86,33.86,0,0,1-.1,3.61c-.08.49-.12.82-.45.88a4.88,4.88,0,0,1-.53.08.13.13,0,0,0-.14.14c0,.1.1.14.27.14s.67,0,1,0l.75,0c.25,0,.71,0,1.43,0s1.71.06,3,.06c.67,0,.84,0,1-.43a13.9,13.9,0,0,0,.24-1.61c0-.12,0-.25-.12-.25s-.14.06-.18.25a1.26,1.26,0,0,1-.78,1.16,5.74,5.74,0,0,1-1.73.18c-1.71,0-2-.22-2.06-1.33,0-.33,0-2.27,0-2.84V70a.1.1,0,0,1,.12-.12c.29,0,2.14,0,2.61.08.67.08.82.27.88.51a1.49,1.49,0,0,1,.08.55c0,.1,0,.16.12.16s.16-.18.16-.31,0-.75.08-1.08a8.91,8.91,0,0,1,.14-.92c0-.1,0-.14-.1-.14s-.14.1-.25.22-.43.2-.84.24-2.67,0-2.88,0-.1-.06-.1-.18V64.52c0-.12,0-.18.1-.18s2.2,0,2.49.06c.94.12,1.12.24,1.24.51a1.81,1.81,0,0,1,.1.59c0,.14,0,.22.14.22l.16-.18c0-.2.08-.94.1-1.1,0-.47.14-.67.14-.78l-.08-.16-.24.08c-.14,0-.45.08-.79.1s-4,0-4.12,0-1.22,0-2,0c-.2,0-.27,0-.27.14l.14.14a5.6,5.6,0,0,1,.59,0c.57.08.67.35.71.92s0,1,0,3.59Zm-4.9-2.94c0-2.59,0-3.06,0-3.59s.14-.82.59-.92a2,2,0,0,1,.43,0l.16-.14c0-.1-.1-.14-.29-.14-.51,0-1.61,0-1.71,0s-1.2,0-2,0c-.2,0-.27,0-.27.14l.14.14a5.59,5.59,0,0,1,.59,0c.57.08.65.35.69.92s0,1,0,3.63v.35c0,.1,0,.1-.1.1h-7.2c-.06,0-.1,0-.1-.1V68.5c0-2.59,0-3.1,0-3.63s.14-.82.61-.92a1.94,1.94,0,0,1,.43,0l.14-.14c0-.1-.08-.14-.28-.14-.53,0-1.63,0-1.71,0s-1.2,0-2,0c-.2,0-.28,0-.28.14l.14.14a5.56,5.56,0,0,1,.59,0c.57.08.67.35.71.92s0,1,0,3.59v2.94A34.2,34.2,0,0,1,90.3,75c-.08.49-.12.8-.45.88a2.47,2.47,0,0,1-.53.08.13.13,0,0,0-.14.14c0,.1.1.14.27.14.53,0,1.63-.06,1.73-.06s1.18.06,2.14.06c.2,0,.27-.06.27-.14a.13.13,0,0,0-.14-.14,7,7,0,0,1-.78-.08c-.51-.08-.57-.39-.63-.88-.08-.69-.08-2-.08-3.57V69.78l.1-.1h7.2l.1.1v1.67c0,1.61,0,2.86-.08,3.55-.06.49-.12.82-.47.9a2.29,2.29,0,0,1-.51.08.13.13,0,0,0-.14.14c0,.1.08.14.27.14.51,0,1.63-.06,1.71-.06s1.2.06,2.14.06c.2,0,.3-.06.3-.14a.14.14,0,0,0-.16-.14,6.74,6.74,0,0,1-.76-.08c-.53-.08-.57-.39-.63-.88-.08-.69-.1-2-.1-3.61ZM83.78,64.41l2.16,0c1.65,0,2,.41,2.08.92l0,.18c0,.24.06.29.14.29s.16-.08.16-.21.06-1.39.06-1.9c0-.1,0-.2-.08-.2s-.24,0-.49.08a8.42,8.42,0,0,1-1.24.08H80.07c-.2,0-.86,0-1.35-.08a6.1,6.1,0,0,1-.76-.2c-.06,0-.14.21-.18.31s-.37,1.63-.37,1.8a.13.13,0,0,0,.12.14c.08,0,.14,0,.18-.16A2.8,2.8,0,0,1,78,65c.25-.39.67-.51,1.75-.53l2.49,0v7c0,1.61,0,2.92-.08,3.61-.06.49-.16.82-.51.9a2.31,2.31,0,0,1-.51.08c-.1,0-.14.06-.14.12s.08.14.28.14c.51,0,1.71-.06,1.78-.06s1.2.06,2.14.06c.2,0,.27-.06.27-.14A.12.12,0,0,0,85.3,76a6.61,6.61,0,0,1-.78-.08c-.53-.08-.61-.39-.67-.88-.08-.69-.08-2-.08-3.61ZM69.62,74.88c0,.31-.14.39-.35.51a4.34,4.34,0,0,1-1.86.31A6.16,6.16,0,0,1,63,74a6.64,6.64,0,0,1-1.82-4.61,5.19,5.19,0,0,1,1.71-4.2,5.48,5.48,0,0,1,3.61-1.08c2.24,0,3.55.67,4,1.29a2.46,2.46,0,0,1,.39,1.1c0,.16,0,.25.12.25s.2-.08.2-.35c0-1.67.1-2.12.1-2.35,0-.08,0-.16-.22-.16a7.53,7.53,0,0,1-1.39-.18A14.34,14.34,0,0,0,67,63.41a8.67,8.67,0,0,0-4.59,1.06,6.24,6.24,0,0,0-2.88,5.47,6.38,6.38,0,0,0,2.06,4.75,9.73,9.73,0,0,0,9.35,1c.22-.12.24-.14.24-.9V73c0-.71,0-1.2,0-1.73s.18-.84.65-.92a1.88,1.88,0,0,1,.43,0l.14-.14c0-.12-.08-.14-.27-.14-.53,0-1.61,0-1.69,0s-1.25,0-2,0c-.2,0-.27,0-.27.14l.14.14a5.31,5.31,0,0,1,.59,0c.71.14.75.33.75,1.69ZM46.36,66.11c.53.59,2.47,2.63,4.47,4.73,1.82,1.9,4.31,4.35,4.49,4.51,1,.88,1.14,1,1.31,1s.14-.1.14-1.2l0-9.76c0-1,0-1.33.61-1.45a2,2,0,0,1,.41,0,.2.2,0,0,0,.2-.16c0-.1-.14-.12-.31-.12-.71,0-1.27,0-1.47,0s-1,0-1.8,0c-.2,0-.33,0-.33.12s0,.16.14.16a5.53,5.53,0,0,1,.84.08c.53.1.63.47.65,1.55l.18,8.35c-.53-.55-2.37-2.53-4.08-4.29-2.67-2.75-5.18-5.41-5.45-5.69s-.47-.51-.67-.51-.23.18-.23.84V73.8c0,1.51-.06,2-.49,2.08a2.74,2.74,0,0,1-.71.1l-.14.14c0,.12.1.14.27.14.78,0,1.51-.06,1.67-.06s.84.06,1.82.06c.2,0,.31,0,.31-.14L48.09,76a4.11,4.11,0,0,1-.86-.1c-.47-.12-.63-.53-.67-1.9ZM41,68.46c0-2.59,0-3.06,0-3.59s.14-.82.61-.92a1.93,1.93,0,0,1,.43,0l.14-.14c0-.1-.08-.14-.27-.14-.53,0-1.65,0-1.73,0s-1.18,0-1.75,0c-.2,0-.27,0-.27.14l.14.14a3.08,3.08,0,0,1,.53.06c.37.08.51.33.55.9s0,1,0,3.59v2.94c0,1.61,0,2.92-.1,3.61-.06.49-.12.8-.45.88a2.48,2.48,0,0,1-.53.08.13.13,0,0,0-.14.14c0,.1.1.14.27.14.53,0,1.61-.06,1.71-.06s1.2.06,2.16.06c.2,0,.27-.06.27-.14a.13.13,0,0,0-.14-.14,7,7,0,0,1-.78-.08c-.51-.08-.57-.39-.63-.88C41,74.33,41,73,41,71.41Zm-16.28,1c0-3.63,2.08-5.43,5-5.43,2.73,0,5.16,2.1,5.16,6.1,0,4.82-3.12,5.65-4.67,5.65C27,75.78,24.67,73.35,24.67,69.46Zm-1.78.45a6.39,6.39,0,0,0,6.75,6.55,6.68,6.68,0,0,0,6.92-6.8c0-3.88-2.94-6.25-6.82-6.25A6.6,6.6,0,0,0,22.89,69.91ZM9.36,66.8c0-1.51,0-3.51,0-4.18a.35.35,0,0,1,.24-.39,5.24,5.24,0,0,1,1.27-.14c2.33,0,4.57.27,6.41,2.22a7,7,0,0,1,1.88,4.94,6.86,6.86,0,0,1-1.57,4.69,6.58,6.58,0,0,1-4.67,1.82c-2.31,0-3.08-.41-3.33-.79a4.27,4.27,0,0,1-.22-1.49c0-.37,0-2.18,0-4.25ZM7.71,70.56c0,1.88,0,3.43-.1,4.25-.08.57-.18,1-.57,1.08a3,3,0,0,1-.59.08c-.12,0-.16.06-.16.12s.1.16.31.16.75,0,1.14,0l.78,0,1.63.12c.84.06,1.88.12,2.73.12a7.79,7.79,0,0,0,5.94-2.25,8,8,0,0,0,2.12-5.53,7,7,0,0,0-1.9-5c-2.33-2.41-5.92-2.24-7.86-2.24-1.18,0-2.41.06-2.65.06s-1.33-.06-2.22-.06c-.22,0-.31,0-.31.16l.16.12a3.68,3.68,0,0,1,.67.06c.65.14.8.45.84,1.12s0,1.18,0,4.24Z"/><path class="cls-4" d="M107.24,83.06a.29.29,0,0,1,.22-.33,4.62,4.62,0,0,1,1-.12c2.06,0,4,.22,5.59,1.86a5.78,5.78,0,0,1,1.63,4.18,5.61,5.61,0,0,1-1.35,4,5.78,5.78,0,0,1-4,1.51c-2,0-2.65-.35-2.86-.67a3.16,3.16,0,0,1-.2-1.2c0-.31,0-1.86,0-3.63Zm-1.57,6.71a33.79,33.79,0,0,1-.1,3.61c-.08.49-.12.8-.45.88a2.48,2.48,0,0,1-.53.08.13.13,0,0,0-.14.14c0,.1.1.14.27.14s.69,0,1,0l.71,0,1.41.1c.75,0,1.67.1,2.41.1a6.93,6.93,0,0,0,5.24-1.92,6.67,6.67,0,0,0,1.86-4.69,5.85,5.85,0,0,0-1.69-4.24c-2-2.06-5.2-1.9-6.92-1.9-1,0-2.12,0-2.31,0s-1.22,0-2,0c-.2,0-.27,0-.27.14l.14.14a5.59,5.59,0,0,1,.59,0c.57.08.67.35.71.92s0,1,0,3.59ZM91,87.83c0-3.63,2.08-5.43,5-5.43,2.73,0,5.16,2.1,5.16,6.1,0,4.82-3.12,5.65-4.67,5.65C93.3,94.14,91,91.71,91,87.83Zm-1.78.45a6.39,6.39,0,0,0,6.75,6.55,6.68,6.68,0,0,0,6.92-6.8c0-3.88-2.94-6.26-6.82-6.26A6.6,6.6,0,0,0,89.18,88.28Zm-13.67-.45c0-3.63,2.08-5.43,5-5.43,2.73,0,5.16,2.1,5.16,6.1,0,4.82-3.12,5.65-4.67,5.65C77.85,94.14,75.51,91.71,75.51,87.83Zm-1.78.45a6.39,6.39,0,0,0,6.75,6.55A6.68,6.68,0,0,0,87.4,88c0-3.88-2.94-6.26-6.82-6.26A6.6,6.6,0,0,0,73.73,88.28Zm-4,5c0,.31-.14.39-.35.51a4.33,4.33,0,0,1-1.86.31,6.16,6.16,0,0,1-4.41-1.75,6.64,6.64,0,0,1-1.82-4.61A5.19,5.19,0,0,1,63,83.51a5.48,5.48,0,0,1,3.61-1.08c2.24,0,3.55.67,4,1.29a2.48,2.48,0,0,1,.39,1.1c0,.16,0,.25.12.25s.2-.08.2-.35c0-1.67.1-2.12.1-2.35,0-.08,0-.16-.21-.16A7.44,7.44,0,0,1,69.75,82a14.43,14.43,0,0,0-2.65-.27,8.67,8.67,0,0,0-4.59,1.06,6.24,6.24,0,0,0-2.88,5.47A6.38,6.38,0,0,0,61.69,93a9.73,9.73,0,0,0,9.35,1c.22-.12.24-.14.24-.9V91.32c0-.71,0-1.2,0-1.73s.18-.84.65-.92a1.93,1.93,0,0,1,.43,0l.14-.14c0-.12-.08-.14-.27-.14-.53,0-1.61,0-1.69,0s-1.25,0-2,0c-.2,0-.27,0-.27.14l.14.14a5.57,5.57,0,0,1,.59,0c.71.14.75.33.75,1.69ZM49,82.77l2.16,0c1.65,0,2,.41,2.08.92l0,.18c0,.24.06.29.14.29s.16-.08.16-.22.06-1.39.06-1.9c0-.1,0-.2-.08-.2s-.24,0-.49.08a8.61,8.61,0,0,1-1.24.08H45.28c-.2,0-.86,0-1.35-.08a5.9,5.9,0,0,1-.76-.2c-.06,0-.14.22-.18.31s-.37,1.63-.37,1.8a.13.13,0,0,0,.12.14c.08,0,.14,0,.18-.16a2.66,2.66,0,0,1,.27-.53c.25-.39.67-.51,1.75-.53l2.49,0v7c0,1.61,0,2.92-.08,3.61-.06.49-.16.82-.51.9a2.32,2.32,0,0,1-.51.08c-.1,0-.14.06-.14.12s.08.14.27.14c.51,0,1.71-.06,1.79-.06s1.2.06,2.14.06c.2,0,.27-.06.27-.14a.12.12,0,0,0-.14-.14,6.59,6.59,0,0,1-.78-.08c-.53-.08-.61-.39-.67-.88-.08-.69-.08-2-.08-3.61ZM37.18,94.83a5.29,5.29,0,0,0,2.75-.59,3.25,3.25,0,0,0,1.61-2.84c0-1.43-.73-2.59-2.82-4L38.22,87C36.51,85.89,36,85.28,36,84.22s1-1.8,2.29-1.8c1.55,0,2.12.63,2.23.82a3.07,3.07,0,0,1,.26.82c0,.14,0,.22.16.22s.14-.12.14-.37c0-1.14.08-1.69.08-1.76S41.1,82,41,82a2.25,2.25,0,0,1-.61-.08,8.38,8.38,0,0,0-1.78-.2c-2.27,0-3.82,1.18-3.82,3.14,0,1.16.61,2.18,2.47,3.57L38,89c1.53,1.14,2.18,1.71,2.18,2.9s-.88,2.22-2.59,2.22c-1.16,0-2.45-.43-2.73-1.65a2.47,2.47,0,0,1-.06-.61c0-.14-.06-.2-.16-.2s-.14.1-.14.27-.1.94-.1,1.76c0,.45,0,.51.25.63A6.33,6.33,0,0,0,37.18,94.83Zm-16.29-7c0-3.63,2.08-5.43,5-5.43,2.73,0,5.16,2.1,5.16,6.1,0,4.82-3.12,5.65-4.67,5.65C23.22,94.14,20.88,91.71,20.88,87.83Zm-1.78.45a6.39,6.39,0,0,0,6.75,6.55A6.68,6.68,0,0,0,32.77,88c0-3.88-2.94-6.26-6.82-6.26A6.6,6.6,0,0,0,19.1,88.28Zm-4-6.06c0-.31-.14-.45-.25-.45s-.2.12-.27.27l-5,10.33L4.31,82A.39.39,0,0,0,4,81.77c-.1,0-.18.12-.2.29L2.51,92.95c-.08.63-.1,1.24-.67,1.33a3.35,3.35,0,0,1-.51.06c-.1,0-.18.06-.18.12s.12.16.29.16c.47,0,1.29-.06,1.45-.06s1,.06,1.61.06c.2,0,.31,0,.31-.16l-.14-.12a2.82,2.82,0,0,1-.67-.1.47.47,0,0,1-.41-.47c0-.27,0-.59,0-.84l.67-7.53h.08c.29.69,1.69,3.49,2.2,4.55.43.9,1.57,3,2,3.86.33.61.43.76.59.76s.25-.16.61-.88l4.16-8.51h0l.82,8.43c0,.31,0,.57-.08.59l-.12.14c0,.08.08.14.49.18.63.06,2.55.1,2.94.1.2,0,.35-.06.35-.16l-.14-.12a3.65,3.65,0,0,1-1.12-.16c-.71-.24-.82-1.14-.88-1.73Z"/><path class="cls-4" d="M116.38,83.06a1.22,1.22,0,1,1,1.23,1.21,1.21,1.21,0,0,1-1.23-1.21m1.23,1a1,1,0,1,0-1-1A1,1,0,0,0,117.61,84.07Zm-.26-.31h-.21V82.37h.53c.33,0,.49.12.49.4a.36.36,0,0,1-.36.38l.4.61H118l-.37-.6h-.24Zm.25-.78c.18,0,.34,0,.34-.23s-.16-.2-.3-.2h-.29V83Z"/></svg>