<svg id="Layer_1" data-name="Layer 1" xmlns="http://www.w3.org/2000/svg" viewBox="0 0 51.5 52.57"><defs><style>.cls-1{fill:#ef3e42;}.cls-2{fill:none;stroke:#fff;stroke-linecap:round;stroke-width:0.75px;}.cls-3{fill:#fff;}</style></defs><title>mostgoodsquare</title><path class="cls-1" d="M25.83,52.57a22.23,22.23,0,0,1,8-4.76c3.64-1.06,13.06-2.69,15.25-12,1.73-7.3-1.54-15.49-1.91-19.17-.33-3.25.68-10.61.85-11.73a1.61,1.61,0,0,0-2.22-1.71,29.05,29.05,0,0,1-9.06,1.72C32.44,5,27.18,2,25.83,0c-1.35,2-6.61,5-10.88,4.95A29.06,29.06,0,0,1,5.89,3.22,1.6,1.6,0,0,0,3.67,4.93c.17,1.12,1.18,8.48.85,11.73C4.15,20.33.88,28.53,2.61,35.83c2.2,9.29,11.62,10.92,15.25,12a22.21,22.21,0,0,1,8,4.76"/><path class="cls-2" d="M25.83,50.67a21.34,21.34,0,0,1,8.38-4.44c7.23-1.83,11.51-5,13.1-9.69,2.28-6.75-.89-14.33-1.53-19.36-.43-3.44.44-10.13.58-10.9.32-1.65.12-1.86-1.28-1.38A30,30,0,0,1,36,6.24c-3.53-.1-7.62-2.19-10.14-4.14-2.51,2-6.61,4-10.13,4.14A30,30,0,0,1,6.58,4.9C5.18,4.41,5,4.63,5.29,6.28c.15.77,1,7.46.58,10.9-.63,5-3.8,12.6-1.53,19.36,1.59,4.72,5.88,7.87,13.1,9.69A21.34,21.34,0,0,1,25.83,50.67Z"/><path class="cls-3" d="M27.09,7a8.91,8.91,0,0,1,.11,1.55,1.27,1.27,0,0,0-1-.81,1.56,1.56,0,0,0-1.28.83,7.41,7.41,0,0,0,0,2.21c.35-.06.62-.4.95-.57.79-.51,2.14-.11,2.49-1.19l0-.06a1.42,1.42,0,0,1-.18,1c-.79,1.3-2.71.23-3.35,1.62A12.11,12.11,0,0,0,25,14.36c.15.17.4.11.59,0a3.7,3.7,0,0,0,2.32-2.68H28c-.07.7-.07,1.45-.2,2.1a47.2,47.2,0,0,1-4.3,2.36c.71-1.23.22-2.89.33-4.4-.07-.85-.07-1.62-.07-2.49,0-.17-.2-.32-.33-.42A3.85,3.85,0,0,0,23,8.77a1.29,1.29,0,0,1,.57-.43c1.08-.66,2.23-1.19,3.31-1.79.27,0,.13.28.24.4"/><path class="cls-3" d="M43.06,9.69a8.23,8.23,0,0,1-.07,3.2,16.74,16.74,0,0,0,.31,7c0,.18-.18.18-.26.13a2.77,2.77,0,0,1-1-1.48c-.55-1.06-.9-2.23-1.54-3.24l-.07.13.07,4.74c0,.15.24.26.35.33a4.83,4.83,0,0,1-1.37.84c0-.22.16-.44.16-.71,0-2.49,0-5.07-.11-7.46-.11-.37-.53-.4-.82-.53A6.53,6.53,0,0,1,40,11.85c.2-.09.35.11.4.26.49,1,.88,2.14,1.43,3.15l.11-.07c0-1.61.29-3.2.15-4.83-.07-.33-.68-.44-.48-.82.24-.2.48-.44.82-.33s.42.29.6.46"/><path class="cls-3" d="M21.86,9.36c-.07.21-.18.47-.24.7l.07,6.19c0,.17,0,.36.18.49l.31.17a8,8,0,0,1-1.63.93l.07-.19.11-.45L20.63,14c-.22-.23-.46.09-.68.15a7.21,7.21,0,0,0-1.23.81,16.79,16.79,0,0,0,.07,3.17.62.62,0,0,0,.46.36h.15a9,9,0,0,1-2,1.15,2.8,2.8,0,0,0,.29-1l-.13-6c0-.28-.33-.4-.49-.55a7.6,7.6,0,0,1,1.83-1c-.46.77-.13,1.91-.18,2.87l.09.13a9.92,9.92,0,0,0,1.76-.91l.09-.19,0-2.15a.53.53,0,0,0-.37-.36h-.15c0-.21.22-.19.33-.34a8.29,8.29,0,0,1,1.46-.7"/><path class="cls-3" d="M16,11.76a8.37,8.37,0,0,0,.53,2.81c-.75-.38-.62-1.25-1.32-1.7-.22-.06-.35.11-.44.26-.07,2.49.11,4.76.15,7.18a.5.5,0,0,0,.37.28h.26a15.92,15.92,0,0,1-2.29,1.25c.73-.74.35-1.91.42-2.87l-.09-5c0-.13,0-.3-.13-.4-.64.19-.66.94-.93,1.42a3.2,3.2,0,0,1-.82,2h-.09c.57-1,.09-2.32.44-3.4,1.26-.68,2.51-1.47,3.84-2.08l.09.23"/><path class="cls-3" d="M38.31,14.21a8.76,8.76,0,0,1-.15,7,2.37,2.37,0,0,1-1.46,1.28A1.67,1.67,0,0,1,35.32,22a7.71,7.71,0,0,1-.88-5.48c.31-1.25.77-3,2.4-3.21a1.62,1.62,0,0,1,1.48.89m-1.61-.08a1.48,1.48,0,0,0-.88,1.34,12.19,12.19,0,0,0,.07,5.5c.15.3.33.83.82.79s.64-.79.82-1.25a14.78,14.78,0,0,0,0-5.74C37.37,14.44,37.15,14.1,36.7,14.12Z"/><path class="cls-3" d="M34,14.87a8.68,8.68,0,0,0-.31,1v3.63c0,1.28,0,2.59.13,3.81a.83.83,0,0,0,.37.34l0,.06a10.39,10.39,0,0,1-1.79,1,3,3,0,0,0,.33-1.81l-.07-4.93-.09-1.66a1.24,1.24,0,0,0-.37-.38c.46-.38,1-.57,1.52-.91.11,0,.2-.11.31-.11"/><path class="cls-3" d="M31.54,16.44c.18.89.09,1.89.18,2.76-.44-.49-.22-1.32-.93-1.66-.24-.06-.4.13-.53.28l-.07.23,0,4.59.07,2.45a.93.93,0,0,0,.48.47,4.42,4.42,0,0,1-1.7.93l.15-.77,0-4-.07-3.25a.27.27,0,0,0-.44,0c-.62.6-.49,1.49-.88,2.15l0,0a17.8,17.8,0,0,0,0-2.17l.09-.19c1.17-.6,2.32-1.32,3.49-1.93l.22.15"/><path class="cls-3" d="M24.44,20.27A5.93,5.93,0,0,0,24,21.9l-.29,1.49-.79,4.23c-.4,1.06-.2,2.44-1,3.27a7.42,7.42,0,0,0-.37-2l-1.19-4.36c-.13-.55-.29-1.25-1-1.4v-.09a9.06,9.06,0,0,1,2-1.06c-.31.32-.2.83-.18,1.25.22,1.21.59,2.38.88,3.57l.13,0c.31-1,.4-2.15.62-3.21.07-.7.4-1.51,0-2.19a.36.36,0,0,0-.31-.17,8.63,8.63,0,0,1,1.72-1h.16"/><path class="cls-3" d="M42.2,23.52a1.4,1.4,0,0,1,0,1.25c-.57,1.74-1.35,3.42-2,5.14a23,23,0,0,0,0,2.76c0,.17.26.3.35.43a21.56,21.56,0,0,1-1.92,1.13,4.35,4.35,0,0,0,.38-1.11A29,29,0,0,0,39,30c-.53-1.1-1.08-2.19-1.7-3.25l-.42-.3a9.53,9.53,0,0,1,1.87-1c-.09.43-.33,1,0,1.45.35.62.55,1.28.95,1.87.2.09.2-.19.31-.28a19.49,19.49,0,0,0,1.34-4,1.17,1.17,0,0,0-.71-1.15l0-.23a1.28,1.28,0,0,1,1.24,0c.2,0,.24.28.35.4"/><path class="cls-3" d="M18.18,25.56c0,2,0,3.89.11,5.87.07.15,0,.34.26.4s.37-.09.55-.17c.77-.77.37-2,1.26-2.74h.18a4.75,4.75,0,0,0-.26,2.1c0,.21,0,.45-.07.66-.95.64-2,1.15-3,1.7l-.07,0,.07-1-.09-5,0-2.1a.83.83,0,0,0-.77-.51,13.57,13.57,0,0,1,2.16-1.21,4,4,0,0,0-.33,2"/><path class="cls-3" d="M35.84,27c0,.34-.18.66-.18,1v2.87l.11,4.27c0,.19.24.32.4.45a5.71,5.71,0,0,1-1.54.83,4.21,4.21,0,0,0,.07-1.4l-.09-3.89-.11,0c-.4,1-.68,2.1-1.08,3.15-.22-.06-.35-.32-.44-.51-.35-.51-.55-1-.93-1.51l-.18.11c.09,1.7,0,3.27.11,5,.11.15.31.26.42.38a7.39,7.39,0,0,1-1.65.91,3.92,3.92,0,0,0,.31-1.21l0-3.61-.09-3.06c-.09-.3-.42-.45-.68-.55a2.86,2.86,0,0,1,1.35-.72c.51.83,1,1.66,1.52,2.51.18.08.18-.17.26-.23.37-1.36.79-2.68,1.21-4A4.13,4.13,0,0,1,35.84,27"/><path class="cls-3" d="M11.14,28a3.46,3.46,0,0,0-.2,3c-.37,0-.57-.36-.82-.55-.13,0-.4.06-.49-.09a1.37,1.37,0,0,0,.27-.7,1,1,0,0,0-.53-.87,1.66,1.66,0,0,0-1.63.13,1.2,1.2,0,0,0-.44,1.32c.71,1.53,2.71,2,3.53,3.53a3.69,3.69,0,0,1-.42,3.57,3,3,0,0,1-2.82,1A2.13,2.13,0,0,1,6,37a1.53,1.53,0,0,1,.57-1.68,1.29,1.29,0,0,1,1.3,0,.68.68,0,0,1,.29.49c-.11.17-.29,0-.44.06a.93.93,0,0,0-.49.47c0,.28,0,.49.13.68a1.19,1.19,0,0,0,1.24.43A1.94,1.94,0,0,0,10,35.91c.31-2.55-3.18-3-3.75-5.14a2.28,2.28,0,0,1,1-2.55,3.12,3.12,0,0,1,2.84-.11,1.31,1.31,0,0,1,1.06-.34V28"/><path class="cls-3" d="M14.63,25.24a1.07,1.07,0,0,0-.22.85c.71,2.3,1.28,4.63,2,6.93,0,.26.38.43.35.68a9.67,9.67,0,0,1-1.81.94,2.41,2.41,0,0,0,0-2.16c-.15-.43-.27-.32-.49-.24s-.66.35-.81.4-.29.47-.33.68c-.1.47-.59,1.67.17,2,.11,0,.16.06.27,0a10.76,10.76,0,0,1-2.23,1.32c.09-.32.29-.57.4-.87.66-3,1.12-6.16,1.74-9.2.24-.49.42-1.17,1-1.32m-.44,3.33-.16.05a18.36,18.36,0,0,0-.45,3.14,2.44,2.44,0,0,0,1.06-.61Z"/><path class="cls-3" d="M29.87,32.81a3,3,0,0,1-.42,3c-.24.45-1,.6-.9,1.21a5.4,5.4,0,0,0,1.94,3.51,1.87,1.87,0,0,0,1,.11c0,.3-.42.47-.71.53-1.54.09-2.36-1.53-2.93-2.61-.2-.53-.42-1.06-.57-1.59l-.11-.11-.11.13c0,1.08.07,2.21,0,3.29.07.21.37.17.37.36a6.26,6.26,0,0,1-1.59.85,19.65,19.65,0,0,0,.07-3c0-1.66,0-3.44-.11-5.14a.53.53,0,0,0-.4-.32h-.29a4,4,0,0,1,1.21-.83A2.93,2.93,0,0,1,29.1,32a2.79,2.79,0,0,1,.77.83m-2.18-.3a.66.66,0,0,0-.6.38,23.66,23.66,0,0,0,0,3.32c0,.15.22.17.35.19a1.41,1.41,0,0,0,1-.64,3.45,3.45,0,0,0,0-3A1.57,1.57,0,0,0,27.68,32.51Z"/><path class="cls-3" d="M23.89,37.57l.93,3.93c0,.19.26.34.37.43a5,5,0,0,1-1.48.79,3.71,3.71,0,0,0-.31-2.17c-.07-.21-.35-.09-.46,0a6.93,6.93,0,0,0-1.65.91,11.75,11.75,0,0,0-.29,2.3.48.48,0,0,0,.49.26l0,.11a12.58,12.58,0,0,1-2.1,1.15c0-.25.31-.42.42-.68a23.94,23.94,0,0,0,1-4.17c.35-2,.82-3.91,1.15-5.89a4.2,4.2,0,0,1,.95-1.62,46.87,46.87,0,0,0,1,4.68m-1.57-1.15-.15.43c-.18,1.15-.48,2.25-.55,3.4a3.89,3.89,0,0,0,1.46-.66.62.62,0,0,0,0-.4A28.22,28.22,0,0,0,22.32,36.42Z"/><path class="cls-3" d="M27.29,22.78c.33,1.21.55,2.49.93,3.7,0,.19.33.26.33.4a6.5,6.5,0,0,1-1.63.91,4.06,4.06,0,0,0,.11-1.3l-.2-.83c-.07-.15-.26-.09-.37,0-.37.34-.95.38-1.19.83,0,.62-.35,1.15-.22,1.81.13.26.42.21.68.26a19,19,0,0,1-2.23,1.23h0c.88-1.94,1-4.17,1.48-6.23.46-1.68.44-3.53,1.32-5l.11-.06c-.07,1.53.6,2.89.86,4.36M26.22,22l-.16.05a18.28,18.28,0,0,0-.45,3.14,2.44,2.44,0,0,0,1.06-.61Z"/></svg>